<mxfile host="app.diagrams.net" modified="2020-07-31T01:03:29.642Z" agent="5.0 (X11; Linux x86_64) AppleWebKit/537.36 (KHTML, like Gecko) Chrome/84.0.4147.105 Safari/537.36" etag="IGSe5VX8jC9ZVakNnPNh" version="13.5.7" type="github">
  <diagram id="FJ3Sj-lyxGpyaEMP-hpq" name="Page-1">
    <mxGraphModel dx="1325" dy="635" grid="1" gridSize="10" guides="1" tooltips="1" connect="1" arrows="1" fold="1" page="1" pageScale="1" pageWidth="827" pageHeight="1169" math="0" shadow="0">
      <root>
        <mxCell id="0" />
        <mxCell id="1" parent="0" />
        <mxCell id="RAJVKOpdcDavsLiYcgov-64" style="edgeStyle=orthogonalEdgeStyle;rounded=0;orthogonalLoop=1;jettySize=auto;html=1;" parent="1" source="RAJVKOpdcDavsLiYcgov-2" target="RAJVKOpdcDavsLiYcgov-19" edge="1">
          <mxGeometry relative="1" as="geometry" />
        </mxCell>
        <mxCell id="RAJVKOpdcDavsLiYcgov-65" value="Baixar app" style="edgeLabel;html=1;align=center;verticalAlign=middle;resizable=0;points=[];" parent="RAJVKOpdcDavsLiYcgov-64" vertex="1" connectable="0">
          <mxGeometry x="-0.7398" y="4" relative="1" as="geometry">
            <mxPoint x="14" y="-4" as="offset" />
          </mxGeometry>
        </mxCell>
        <mxCell id="RAJVKOpdcDavsLiYcgov-66" style="edgeStyle=orthogonalEdgeStyle;rounded=0;orthogonalLoop=1;jettySize=auto;html=1;exitX=1;exitY=0.25;exitDx=0;exitDy=0;entryX=0;entryY=0.25;entryDx=0;entryDy=0;" parent="1" source="RAJVKOpdcDavsLiYcgov-2" target="RAJVKOpdcDavsLiYcgov-20" edge="1">
          <mxGeometry relative="1" as="geometry" />
        </mxCell>
        <mxCell id="RAJVKOpdcDavsLiYcgov-2" value="Nova usuária&#xa;(primeiro acesso)" style="shape=image;verticalLabelPosition=bottom;labelBackgroundColor=#ffffff;verticalAlign=top;aspect=fixed;imageAspect=0;image=data:image/png,iVBORw0KGgoAAAANSUhEUgAAAGAAAABgCAYAAADimHc4AAAABmJLR0QA/wD/AP+gvaeTAAAOA0lEQVR4nO2da5RU1ZXH//tWdXU9+kFXQz9pAQU7EXw0MQRRo0LUgagLjYkmGWeELE1mQJOIgnHNGuOsZK0ITOKgjq7+QGZCHKMQDKCYiFECAy4XChHtBkTopl/VD7qqq6rr1XXv3fOhG4Smu++5956qhkz9vtHss/euveve89rnFJAjR44cOXLkyJEjR47/b9B4OzAWnZ3Rsjyd6lhRasGoJaAWoDKAfQBKAPiGRGMAQgDFwHoXE30KwmHSlSMuSh8orCzsGb9PMTbnVQI6OtjrUuI3k07zQXQTwLNg30cG8DEY7+oKv5NMe3fU1FBCgrtSGPcEMLMSCiTnsYL7wPq9ABVl2GKEQFtAvLGk3LudiLTM2hubcUtAUxO7i93xpQx6FMC0cXLjOIHXlvR719MMSo2HA1lPQEcHe/Mp8c8AHgFQmW37oxAAY20KnherqiieTcNZTUCwM3Y7M60DMDWbdk3QBuDHpZXeTdkymJUEhAKJqRr4WQJuy4Y9uxCwFUwP+as8LVmwlVlOdsQWE9F6DA4bLyA4AtADpZXeVzNpJWMJ4KOcH/QlVoPwcKZsZAWien/U/XCmOumMJCDSFilNO5yvA5ibCf1Zh7DHmU7fUVxTHJSvWjI9PbEqRVX+CPDlsnWPL3wIOt1aWu1tlalVagJOdqS+QKS9BaBGpt7ziBZdV26ZVO0+IkuhtAScbI1XkxN7AEyRpfO8hNCu6HRtSZXnhAx1igwlkbZIKTl5B/7Wgw8AjGqd9O3h1rBfhjrbTwAf5fxgQWInMtjhRkI9aD70EbpaP0NvoBWJeD+SiX4kYzFo6sBZsrcveRS1dfMy5crnMPb6Y575dkdHTrt+hAoS/44MBF8dSKHxg934aO+f0NVyTLjdnzfWo2bGLHgLMrymR5gX9CVWA/ihPTU26A3E7waw0Y6O4TAzGvftxO5tL6E/bG3UV1s3D7cveVSmW6PCjG9MrPJuttrecgJCgcRUHfgrwMVWdQwnHg3jzd+uQ9OhA7Z15bnc8BWXoLCoBJOnz8L0K76MsskXg0jyyJvQp+h0ldVO2bI3JwPxrQTcbrX9cHq72rDxuZ9a/taLUH7RJbhx8f2omT5Tql5ibPFXeRdbamul0dD6zmtW2o5ET0cLNj7/JOLRsCyVY3LFNV/Dgm89CIfDdhd4GiK+w1/h22a6ndkGQ+v5jZA05IxHw9iw5jFE+07KUCdMzYzLcecDq+Bye2WpbIqrnplmtztNzwPclFgGScHXNQ3b1q/JevABoPXox3j9v34JXddlqZzmdSS+b7aRqQTwUc5n4EdmjYzG/l1voPVYoyx1pjneuB+7t/1WnkLCyqYmdptpYioBoYL49wBUmXJqFGLhEN77Y0aX2oX44J0tCDQflaWusjg//o9mGggngJmVoQ10Kex+43+QSsjffq0oZiz5qo7ZU1lInpnx9qZ6MIvJG6ETPcbMwn2r8DDgZGfyBkVS9UK0rxeH9v1FhqrTFLmB+TN1XD2NoRAwZSKjLaigO2Ici66WYzje8CEumXW1bT8IuKQvkLwewC4ReeEnQIF+n2WvhvHBO1uhaaoUXS4HsGCmjkcWaZhz8WDwT/3923N1uBxiet5/2/Jk9hx0QDhWQglobWUPoNxl3aXP0TQVjft22tZDAOqmMFYs1LDgMh4x0OXFwB2zxUY5HccPo6dD0h486d8ajJkxQgnw5MVvkbXk0Hzor0jEorZ0TC9jLL9Fwzfn6Cg0+Jizp7Jwf3DoA1mvRSryOePzRSSFEkA6CSkT4cj+PZbbnupgl96go9LE1+GO2TrKioyTYMe34TDoJhE5sT6AxJQZwcw41rDPdLtCD3DX1TqW36xjRrn50YpofxAOdiPY1WZa/4gQFoiIGSagszNaNlSlbJvu9mZTQ89THeyKhdrp0Y1VRPuD5sMfWTdyJowrIh2RiUZihgnI06kOkvaO2z77REhOpIO1gkhf0NF0WI4xQBlwuK4yEjKcB7Ci1JKcOQpajzYYyswoZyy8klFRLMmoSSTOigFdqwXw9lgixhMxRq0sf3ramw1llnz17NfEkbYoNu9uBxHhzmurUFtTOGZ7s/LDCQe7kUrEke+xv0qqgAxjZ/gKIuZLbXuCwT3eSMj8SaHX/rcDkbiKcCyN1/Z0SJcfiXBvp6V2w2Fi+wkAKRUynAl2t0tbb8k0oZ6AHEVMhrETGIayuWd4FE52Wqvou/PaKhT78lDsy8Nd11VLlx+Jvh45TwAAw9iJLMZJSUAkaO2gYm1NIR6/V7wbMis/EqGT2UuAyESsQIIjiEX6ZKjJCvFISIoelpQAKcSjF04CkolY1myJJKBfhqH4BfQEJONyEkCA4aqjSALsLV0OEe+PyFCTFVIJKd85QE4CSEoC0gPjcgzXEhJ9lZAA1qUMCVQ1LSSXyamCqG5NlXR4ntgwdoYJYKJPZfgyvIx8NHYdytw1DjsbkkJyrMvZLiUmw5M0AjNhSDmOo6liH+qFt/pxokdOAM6ktVdD/dti/dDcW78pxaYOtp8A0nUpCdAFN+ETAzp+vrkPfXFpFWsIxXT826Yg4gPG76B5C+/BvIX3yDGsOOwnwEW8H4NXvtji776zHHkusaKxrrCGR/47iONd9p+EEz0qVm4IojtsnFCpwQd0V3rAsM7eMAGDlx2R2E7KGFw250bc99hqTKq6SEi+N6rhiZdD2Nko9t4eiXc/SWLlS0F0R4w7VcnBBwMfFU0u6jWSE5sJM79j2yMA/vLJ+O6K1bhy3s1C8okBHb96PYxodwpqSvyVpCZ1RLtSeGZ7GMlsv3aGIEAoZkIJ0BU5CQAAZ54LN9/7T1j09w8Lv5K0lI7+7hQigSQSfWmoSR26xoMvRgZ0jaGmdCT60ogEkujvSUEbEEtYJoIPAASxmAmVJibT3h1eZzIs8zjSZXNuRMWU6dj267XCBVG6ykhFVaSickZJmQo+QOGY6nlXRFLoCRg8dKD/3p5T52L2lSSTzAUfAOFV0YMawsW5OpQNCnipda9GcWDolVR98Rex49V6AMDUtBPXx92YG3dhsupEMqgi6Tf3rXf3OrCltQxtThXveVPY5U2iJW+wM85o8AGQjg3CsqKCzKwEOxNHAVxsySsBwtv/BPeLr6Cy5ewTM/x9oL94ABrE3usOJhSE80H1Z/yRCO1TJ+HgosvxlQdsHe0dEwI+K6nwXEokVksivB9ARDqB11p3bXQcJzpQuOwpTHvi+XOCDwB0glBQ6BI6YkoEFBTmg5qH/Qczqpu6sfD5P6PwB/8KR7OkCrjhMK8RDT5gsuBq6FqC45B0SgaqBk/9K/Cs3wSMtVRRA2AlQQvpiMZSo08LCSgsyIdjggKsZmCMbWh2uZB88B4klt4NWyV3Z9Pm7/dMN3N9gakdsSHFvzTt1ki6QhEUPfAv8NT/buzgA4OB7AYcJQoK/fmgEQJGCqHQPxT8LowZfACggQF4ntuAwmU/BUXlbMAwYY3ZuyNMb0mm2PMCgGaz7c4y2tGNovtXwXnAuFLuNEPnTRxeBUUVbuT7nFAcBMVByC9woKjCDYd36OPsEl85yXvvAIqWrILSbe+AOAPHoglPvbHk2Vh69oKB2EIGbbfSlkIRFN2/Co4T7eYa5gF4kgCjmUgfA08BMDlV0KZUIfrrp6H7rU11CHybv9L3htl2ljbl/ZW+NwnYarqhqqJw+VPmgw8AaQC/YYw5EGIAL5Hp4AODA4GCFb8ArGzGEF6zEnzATlUE00MgmNpp9677DZwNNopfPwXwB4zcCTOA3wM4bH3h1nmgAZ4XXzbbLATN+pU1trr/YGfsNmbaKqLHcfg4ir/zY0CXsOc4g4Bb+PP7d5sI2MGAjMJmh4Lwy89Au3SqoSgGz5x8Y2KV1/K9GbbHX70d8f8QuRu0aMlPzHW640j6mjpEX3jKWJDwq9IK7yN2bNkuzPLHPCvB2DuWjPNA4wUTfGBwZCTwqtzt7/U8bteW7QTQDEqRO7kIjFHP9rg3vmnXTNbJf2WsQR41ONX0YppJYpUGYyClNNHv94dZw9cBnHtrlKoi7933ZZjJKq4de4D0iKU0bcRYJOsWXWm1oRNrvO26rtwK4KzF/bwPG0AJ69uK4wUlknAePGdPvUXXlAUyb1WXWpw7qdp9RHfyXAAHT/3N+eGF8+4fTt6+j8/4FzdCx3WTJrul1EmdQnp19KRJvoBTTd90qmPO2KpjFjhjwrjbMZC+Tva90UCGytOLa4qD/krPDQw8rbRIOu4zDijN7QBjnT/o+dqEKRPkHBoYbiMTSgGAiNSJld7H1dm1P2N/ibwqqyyhl05g9UuzflFa5f2hjNHOaGTlJ0xi6zbVud7a+7pz30E5+wgZRv3KlW2p+dd8veBHdx80lrZHVn/EJ7XqP59w7nz/SaW53ZVNu6JokyvT6euv+rnnmRUC02A5ZP1nrHrXbS/yfXJwfd57+xcr3UFJlxDYQy+fqKlz6zaHr5yztGzZTdJOZ4gwbj/kxk9vKRxoPvKcc9/H9yqtgXF5IrSLqge0q2e97PKVL6O1/5C9g2FnMO4/ZQgAieVrljhOdD7qbPj0ixRLZNQn9nlYrZt5TP3CtGc9P3vwWTMb6JngvEjAKXrXbS/ythx7yNEauMtxrPUypb3TbXv5WiFokyuT+iU1DVp1+eb4lOnPlT686Lw5sHZeJWA4iTWvTuOu7rsdnT3zkEhMd0QSFRTqK6BE0olkykHJFAEAu/MZ7nyNPW5VL53QzwW+AHvcn2llJXtpUtkmz0++3TzOHyVHjhw5cuTIkSNHjhw5TvN/rRRHYDYxbZ4AAAAASUVORK5CYII=;" parent="1" vertex="1">
          <mxGeometry x="90" y="152" width="100" height="100" as="geometry" />
        </mxCell>
        <mxCell id="RAJVKOpdcDavsLiYcgov-77" style="edgeStyle=orthogonalEdgeStyle;rounded=0;orthogonalLoop=1;jettySize=auto;html=1;exitX=1;exitY=0.5;exitDx=0;exitDy=0;entryX=0;entryY=0.25;entryDx=0;entryDy=0;" parent="1" source="RAJVKOpdcDavsLiYcgov-3" target="RAJVKOpdcDavsLiYcgov-22" edge="1">
          <mxGeometry relative="1" as="geometry">
            <Array as="points">
              <mxPoint x="610" y="188" />
              <mxPoint x="610" y="205" />
            </Array>
          </mxGeometry>
        </mxCell>
        <mxCell id="RAJVKOpdcDavsLiYcgov-78" value="Ler apresentação e termos de uso" style="edgeLabel;html=1;align=center;verticalAlign=middle;resizable=0;points=[];" parent="RAJVKOpdcDavsLiYcgov-77" vertex="1" connectable="0">
          <mxGeometry x="-0.3878" y="1" relative="1" as="geometry">
            <mxPoint x="32" y="-15" as="offset" />
          </mxGeometry>
        </mxCell>
        <mxCell id="RAJVKOpdcDavsLiYcgov-3" value="email pessoal" style="shape=image;verticalLabelPosition=bottom;labelBackgroundColor=#ffffff;verticalAlign=top;aspect=fixed;imageAspect=0;image=data:image/png,iVBORw0KGgoAAAANSUhEUgAAAGAAAABgCAYAAADimHc4AAAABmJLR0QA/wD/AP+gvaeTAAAOGElEQVR4nO2dfXBc1XXAf+e9lWVJu7KxsU2MP7RrYTx1P/gIQ4khdUIJDSmUNLXjtngmaUJsSaAAGQieToibphNPPQODjCQrCaGkDgxqSFpoSYBJoCGhMLSQOrjBjeWVvwj+wpZ2ZdnWvnv6x8qJLfTue2/3rWTS/c34H79zzz16592vc8+9C1WqVKlSpUqVKlWqVKlSpcr/J2SyDQhDc4fWak3uvUblIoTfQlmEMBfDbIQpwDlAAcgBR4BBICewD3Qr6FbcKT/buaZu92T+HeNx1jpgQdfRTILEjYpeD/w+MDUGtW8DPxDR7xfUfHd36/QjMegsi7PKAc0dWuu5Qx9H9NPAlVTWvhPAvxqlc1db6rkK1mPlrHDAvHu1rqZuqBXVO4C5k2DCa4L5ws7Waf820RVPrgNUJdM1tEpFNwALJtUWQOA5RVuyrY3bJ7DOyaGp+0iTmMRXEa6ZLBt8OK6qX+xvTW1ERCtd2aQ4INOd/0tV3QwkS1QxAmRBjoAeBY6qYARqUKZTnBU1ATNLtVFVnyrU6uq9n572dqk6wjChDli+XhP9s/MdAi0Rix4DngR+ophXqGv8af8n5XhQoaWdB5LDTL1IhSvAuQr0GqLNpn6OSXw4e0vdroj2hmbCHHDhgwdTJ0/U9oL8UYRiz6vqw7VTTzy+/VOzcnHYMHKy7gZVXQNcFaqQsNcUvPfvunV6ttz6x1c/ATR3HG70ErXPgF4eroS8DObObGvjC5WyaVH34DJP5UsCHwxhT7bgyZV7bm14M247Ku6AORvfaqhvaHgaWBZC/Jeq3N7fmuydiAEQIN2dX43qvcC5dkl5Wesalofp+qLgxKnsHfSqW9/Q8AhhXr7wA2rk4v621GMT9fIBsi3Jf3TUvUSEV+2SerkM5++Pu/6KOiB9KLcBuCFATEX5m+zM5LXZm5P7K2mPH31t9XuOO8mrgCcCRD+T6R784zjrrlgXlO4avAHknwPqUFFu2dmW6qqUHVEohkLyT9rWJgL76nR4yba22fk46qxIC5i/aWguyEMEvHwVbjtbXj7AjnY5cSKRvBHhZ34yCucPUf/XcdVZEQfUuKYTmBEgdk9/S6qjEvWXw5tr5JgxfBxkyE9GRD/b1Jk/L476YnfAwu7BjyrcaJMR9HvZluTfxV13XOxqS/0c9PMWkToRc2ccdcU6Bizt1SnHDuW3Ac2WCvc5BS7e0Z46WE5dzR1aa9zcZUZYJipzEZ2hiAMMCBxBZbvj6Kvz9yffeH69FKLqX75eE7tm518DfttH5KjWJd9T7rQ0Vgc0defaRbFO1Rzh6r6W1A9LrWNR19ClBrMW5M9BG0IUeRv4NuiWqAu7hV1DH3YwT/k9V2VVf1vqsSg6xxKbA0a/mD7sYeXHs62pPytF//xNQ3MTrrcB5CZKtFvhRVf0rr6Wxp+ELZPuzm1F+Z1x9ak+1d/W+JFSbDlFbGPA7llDK7C//BFxzLpSdKe7cisSrnkDZDVlfDQC7zMqL6Q7c/fP7dH6MGVU8Z2liciHFvYMvadUeyBGB6jo5+wCdO9cO+0X0ZSqNHXmvwI8BqRKt+4MBKG91su/ltmUH/fLPh2D9xjF8Pd4JBzPXF+OMbE4oKk7txy41CJScD13Y1S9mc1DG0T0biqzYFyMa94bJDS6cf/v/hIaJsblSywOEGVtgMi/7Giv3xtFZ6ZrcJ2q3lWGWSHQA6GkhCf9n8qV5ViQKKcwjC7fyV9nk3HEvx8dj0XduQ8a5W9DihuEH6uRHY7oXkXrQeZTjPfbN/g1EcoBjjgvqhq/x5n5m4bmlhqqLtsBZsqxqzGW/ll5o68l+VzYPbDFPYPnjnhsAdwAUQ/0PkcTHX2t9XvGPmzqzJ8nor+0akg4oYJ/dTPqtx47lD+Oz25aTcJcATweRtc7TCil0OmoMR+1CgjfiRJeLhTkywhBM4tDRlm5q63RN59HXObg+9EWMVOmhmoB21bKyXTn4OuIjDtmGKOLwugZj/LGgPXqANbwrKMaOtem+YHcUhU+FSA2osKKwGQqjzkBegYirWJFfLckpdjllURZDlg459jvAbag1OG+WamXw+rzHPkKQa1SZF1/S+r5QGXC7ACJUF//aQr7/U1iXjRdv6YsBzjGu8T2XIVnWCleGF1NPYNLQINWlTvrZzZsCmWcBLaAiA7Qd4wzv3oCk9MCcMTqAOClsKrEk9sD7RFZv22lnAylD3sLUIi0+6aqtqyMktMpy3OAim3xhai+FkZN00M6FVgVIDY4Mtzw7dCmqbHG60V4K6wuAEFsO2A1UXSdTskOWL5eE6C/axFRPeH57iydwVDuWqDRLiT/tPcOGQ5tYEALEEOkcLjaHVDyeyy54O5zcxmgzl9CdvXffs7RMLpEZEWQjCqhv/5RnfZB2InYBYnYwiET7wBFArbkNHyGsXB1gIRXO3U4dAi5WH28g7Cjnm12NvEOwLVOPwEN9YVlNg9cgH0qC7A1UmqiqijMssqYcPb9StyxTo9LDhaW7oDALyzcMh8THMzSCLMpgHkPDp4DTAlQGq0F4NgyuUs+6lTOLMg+yyDsLENsA/kpmf8Np6uIe8IJ6n5wzEi0WZBaWpSyL4quM+wotSBB82wJN8swqouDZERNX1ijACR4FXx8R/vMwSg6FfU9a6CCPehnoQwHqL2JGw01ZRSRC4JkXJWdIY0a1Rn3KhgU8Q0QCpPiAKwRTlX128Yby/lBAicdL1qsPWh80nAbMacjsNT/mU5KF2RX7GhwLk4xmmpZSxSZ5U6LlocZ1ALEidT/06suqF9+EKq8HknfaZTsABHHHuO3L1wAmNOwv47gKdzIf62RsK3pFEFxoEir4OYD+SWAbxbFiJMISG33p2QHGLV3QcZIYNJUMtkQJrGq5tIejRZrCV6ERWoBxlVL5oPu2ttSP/FdkGDv4wUNiO2AjJwMtSGSIzctrF3F7sI+tXU0YhzIiP8ZB5Fnouh6hy2lFhQNGvmdwJc2OhUM7N9PeuqbazqW9OH8x0Cb7KaFnwWluwYvRPA/22bUkjERTBmxoKCRX8NuUgTOcBxxLg6pC4wGZy2LhF65qjp34f+eDtfPSj0dVtd4lDEIq/3FiaRDquoPEjBKqHzSdFduhd/G+Rn6Cl6oMaW55+giEb3JX0IfDrtB5EcZg7BrbQGKZsLoEdHAm0oEli/qGrJu/izcdDQN4fKPHMcJzmLoVbfgud/EP6ZUwNSUfcCkZAdMSRhrppvAhWESYD3cME3YMZh/aO7IjRuPWdQ50Oy47tMEHjUtoqj1AAlA+lDu7wXe5/dclAfjOEFfVs5lujP3ln3Ro+8PzMlXlUx3fo+GWBGDZFXNl1xHnuprSR3I9AwvwIz8haqsI3BHbUy1yCf6W5MPj/3/5g6t9RL5DuAzluIDjrC4ryUVeUU9lvISs4SfAtf6PVblCsDuABHVzlw3wpeDK9S0iDxkFNJdOVWvIKV+Q4J+I92dW2YMjyYwezxxzheVy4zkbyPoY1Bp72tNlv3yocxQhIA150ccCXV4QRIjDxA9QBb05oMCZA7KzY7wQyPOLwSeR3RjYEtUvpVtS34zkqVWI8rAgP2okbJscc9gYL+8c82MARD7+YIICGw2jn6MgIBhCYp/5HrJoMy9SJTlgEQh+ZLtOCfgFgqyMoyubGtyi6p8oxx7ABS+s+BA8tZdaxv/A/S+cvWdpvjZY/mh63a0y4nYdFKmA3a0ywlEv2cVEtpQDdVRNx1sWIPSW6o9AptnuslVp05FznBTd1M8XVMOCrJxRiL5kf13nmf72Eqi7JMnTd25VaI8ahVy5EPZtclnQylUlczm3OdV5YuEvFxJYB/CZ3e2pN6ZIt6rbvpQfh1wD9ETqF4yjt5RbE2VoWwHzLtX62qm5vdiOxmv+p/Zg6nLWS8BCeO/JtMzvEALI+0Uc4bGO/w3gvAjQR9xRlLfCuoaRu+o+xywwjp1FvaifN9RfaivrfHFsPaWSixnrzJdufsUbguoanW2NbmlFP3NHcfmFWq8ZlFtFJxjeOyvm9OwvaQwQK+6TUdyF+CxRBhN3hIZRnhLxN0+0bfrxuOAnuEF6hV2YG/iBwuec1Elbp16NxPLlmTxq9FHAsRmJVzz8Og2ZJVRYnsZjia+QPF2Qxt/mJ6dP+tuSJlMYnNAX1v9HuDeEKJtTV25e+Kq991OrAegmzu01qvJv+J3t8IYvjrDTd5Swob7bxSxn0Bf+MDQJY5jXgRqA4WVZ0cc95PlbGq/26nInXGZ7sG/UpUHQ4oPKNzdf27ya2HPk/0mUbFL+zJd+Q1qv3VqLDtQ3eB6qS1xx1ugeH9pQ0P9SlSu39mW+tO49ZdK5S5uVZV0V74D4ZaIJY+oyndx6B3O539cTvwls3ngAjXOByjejnsdozeuiGMWR765pUJU9ubc4m7Xei3GYUqhAPy3wCtGNSuO9DvoPtQ9jhYGRkSN6yRS4pkUrtuIZ5pUWIKyBGEpvqcX9eZsa+PXS7QpVibk7uh0V/4m0G5Kv64+ZnRLtrVx9WRbAZW+uniUbGtyi7p6GegrE1FfMPIHk23BKSb2BxyKoeFWYD3B94pWFA9v0e7W6ZHOHVSCiY3LrBQv25raJO5IhuJ9QJPzM1LKGwnjlH1TTBxM6o/4zO3R+ikmv1qUTwCXV9oeEV5VI/fPSDQ8eraswM+Kn7GC0R9u08SfIOYaRa4ingG7IPCCQZ4wFJ44G7qcsZw1DjgDVVn4wECTm3CWGmWpwFJB5ik0KkyX4nw+STFtcGD03xHgsMD/qOrrgrv1eKJ+25trJChCW6VKlSpVqlSpUqVKlSpVqlSZMP4P8Vv2OR8EswIAAAAASUVORK5CYII=;" parent="1" vertex="1">
          <mxGeometry x="510" y="173" width="30" height="30" as="geometry" />
        </mxCell>
        <mxCell id="RAJVKOpdcDavsLiYcgov-6" value="Tive cólica, esqueci meu remédio e perdi uma aula e tive que sair mais cedo da faculdade, esse app poderia ter previsto isso" style="ellipse;shape=cloud;whiteSpace=wrap;html=1;" parent="1" vertex="1">
          <mxGeometry x="20" y="32" width="160" height="120" as="geometry" />
        </mxCell>
        <mxCell id="RAJVKOpdcDavsLiYcgov-106" value="Adicionar início menstruação" style="edgeStyle=orthogonalEdgeStyle;rounded=0;orthogonalLoop=1;jettySize=auto;html=1;exitX=1;exitY=0.5;exitDx=0;exitDy=0;entryX=0;entryY=0.5;entryDx=0;entryDy=0;" parent="1" source="RAJVKOpdcDavsLiYcgov-15" target="RAJVKOpdcDavsLiYcgov-46" edge="1">
          <mxGeometry x="-0.1617" y="10" relative="1" as="geometry">
            <Array as="points">
              <mxPoint x="860" y="560" />
              <mxPoint x="860" y="560" />
            </Array>
            <mxPoint as="offset" />
          </mxGeometry>
        </mxCell>
        <mxCell id="RAJVKOpdcDavsLiYcgov-15" value="Calendário" style="shape=image;verticalLabelPosition=bottom;labelBackgroundColor=#ffffff;verticalAlign=top;aspect=fixed;imageAspect=0;image=data:image/png,iVBORw0KGgoAAAANSUhEUgAAAGAAAABgCAYAAADimHc4AAAABmJLR0QA/wD/AP+gvaeTAAAEMklEQVR4nO2dz28UZRjHv8/OblvchW6aCBIJaiKobILRLkq8EFKKB+XIXyAeiIYTURMu3g02xnCDqyYajiRaJMSThYhG0EpSD8TY2HLY/tiZ/rA7+3pY1Ejb7fsOnfeZ7X4/1/eZme/OZ993Z943eRcghBBCCOlGxOfFLl8f2xM04xEIXgcAA7maD3IfnDhyeMJnjizl8Sbg8vWxPYGJfwIw8FBTLTBy8MTQa5O+smQpT87HRQAgaMYjWP1hAWCgKfjYV46s5fEm4J9uvhYGZt221MhIHn8CgO1t2vq9pfiPTOTxKYCsQT7pgfWjhyoS4BSMDAN4GkCxXf03G5wvHHrFJM2ShE3IEwG4B4NRI3Jx+7Ub40lyOAswJys9CzPF88bgNAyCJBfdIhQBVCCoCMyZcOjVC8XZxlm5dWvF5SROQ5A5WemJaqUrxuBdoKtv/sMEgDkTlXNXzOBgweVAJwELM8XzgDnmlg1YbsSbUrNZpJdHhqNy7iOXI6wF1I8eqhiD066Rmgb45Y/ahnXjkzU0PfwKpJ9H3qkfO/yCbbW1AMnhbSQYdqZmI0TLGw+L4dIKpuci19M74yFPXkzzlG2xwxAkw0nS3J9fcKhdTHIJJ7zkMThuW2rfA4C9SbJEf9mPpeFyI8klnPCSR/CUbam1AAOUkqV5wNL63yZZbH0rBR5fBdLN0+4t+3+k/iZc7Gn9bOR+vrNujdy53artdXqC2xJ5Uhewc8djAID8F59BwvqqdolC5L/8/EHttrTjZC5P6gKeKBdR6itApv5Ez7n3ENz4rtX9lxaRuzmGwofnINNTKPUVsKu/7WzGlsxjvSDzKHM1y40Y45M1hEtrP/6V+go48OQAevN+Xq595Cldu2l1bxNPxrnQmw/w4t7HMT0X4f784r9PF6XePHbu2IZd/UXkPC6OZimPFwEAkBNgd7mI3eX0u7UNWcnD9QBlKEAZClCGApShAGWsH7Z+vPub1zXbTuel55+1urfsAcpQgDIUoAwFKEMBylCAMhSgjLfZ0G+/v922/Uj1YKbr04I9QBkKUIYClKEAZShAGQpQhgKU4XpASnA9oEOgAGUoQBnOBVnWpwV7gDIUoAwFKEMBylCAMhSgDAUow7mglOBcUIdAAcpQgDKcC7KsTwv2AGUoQBkKUIYClKEAZShAGQpQhnNBKcG5oA6BApShAGVcBKzeYpCsx7xtob0Awe+JonQn1vfKXkBTRhNF6U6+si2037o437wIwN8m/51LI5bgkm2xtYCX9+0bF+BCskxdhJFPq889c9e23OkpqBHOnoWYq+6pugUZjaOZ912OcBJQrVZX4vrcGwA+AZD+XvOdQwNGRuJw5s1qter0Jz6J94f9YWLiABq5t0TMcbT+xurRtrfvPEIA90TwdSzNS4P79/+qHYgQQgghhBBCCCGEZJu/ATSfhws6qOfEAAAAAElFTkSuQmCC;" parent="1" vertex="1">
          <mxGeometry x="760" y="535" width="50" height="50" as="geometry" />
        </mxCell>
        <mxCell id="RAJVKOpdcDavsLiYcgov-68" style="edgeStyle=orthogonalEdgeStyle;rounded=0;orthogonalLoop=1;jettySize=auto;html=1;exitX=1;exitY=0.25;exitDx=0;exitDy=0;entryX=0;entryY=0.75;entryDx=0;entryDy=0;" parent="1" source="RAJVKOpdcDavsLiYcgov-19" target="RAJVKOpdcDavsLiYcgov-3" edge="1">
          <mxGeometry relative="1" as="geometry" />
        </mxCell>
        <mxCell id="RAJVKOpdcDavsLiYcgov-19" value="" style="shape=image;verticalLabelPosition=bottom;labelBackgroundColor=#ffffff;verticalAlign=top;aspect=fixed;imageAspect=0;image=data:image/png,iVBORw0KGgoAAAANSUhEUgAAAGAAAABgCAYAAADimHc4AAAABmJLR0QA/wD/AP+gvaeTAAAJ9UlEQVR4nO2cf3CT9R3H35+HpJRCyw/FbaJCOaTUpilM6Jg6CEPZbjpP3dwfeugfOne73SzMpnWnp3WioJwT2Lmp551He+xUFD1ARRGatPJLVksT0rRNUlqRpj+UlvVX2iTPZ3+EYmUtTfJ8nyc/yOvPJN/P95P3q/nxfPrkAVKkSJEiRYoUKVKkSHG5QdEuvOPj9+5eMLV33Z+ur79CYnm3NBR4MTt7S4/I5i4HpGgXEvPLnr5pK15x5QZlif4YSNd7PO3mIuZ7J4lsMNmJWgCA6wDA05dpfKUp9zRAxIwtnvZ5dldb6S8E9Zf0KBFw4e3L05eV/4/G3A4GdQPIJZL3ubzmPU0dj89X3mJyo0TA9zg1kLlolAQQcIckB53utpKtDV0lmaL2STaECQBCErY15XYwcPb8TWkgflQX4AZ3W8kjzGVC90sGhAfS0p+5aFvTDZ2jJADA1SB+zdPef8zdUXqT6D0TGVX+Ilv6MxdtazR0XSQBAJZClj/3eM3veNpKr1Nj70RDtbeEloGpOdsaDV0y/58EYuBekFzv8paUnTpVlq5WD4mAqu/JLQNTc7a58r4ZQwIYmErgp4Pp/U1ur/kBNfuIZ1T/UGztn7ZwPAnnuRbAdrfXfLC5o9iodj/xhibfSlr7py38e0N+D4M6L/GwVbJMtW5vcbm7vfgqLfqKBzT7WnjGlzH/JaehjyF1XLofWgtQo8dbUupwlKVp1V+s0PR7eUhCXv8EEgDGDAZvmjxrwO7xFt+uUXsxQfMDozO+jPmbnYaBCSUAAHghg/a628z7Xd7HblC/O+2JyZGp1zcle7PTMMBMYUgAQLiVIJ1wt5Vs9Zwtna5ye5oSs9GA1zcle3NDfvgSAD2IH+UhOanG3jGdzYQk5A0yqD2CZVeExt7Zx5vaHluhWnMaEfPhmNc3dd6LDUZfhBIA8BKJJKvLa95zyvv4PFWa04CYCwCA9sH0eS86DUORSwiNvYMIOlzekrK2trIMNfpTk7gQAADtvoy5G+uNgSDT11EszyDw0wNSaKzBHP3/urUmbgQAQNdQ+jUvOI2IUgLAmANgu6fdfMzVUfxTsd2pQ1wJAEISNjmNJDOdVlBmGcl0yO0tLj/Vaf6hsOZUIO4EAMA3Q+lzNjqNkkIJBNBaOQh3PI+941IAEJLwfH3BpKAMJRJGjb377C6v+V5R/YkibgUAwLfDk6/e6FysWEIIWkDAO26v+YCnvTRfeT0xxLUA4DsJskxfCSr5c2b5S3e7+TWX96+zBdWMmrgXAIQkPOcs0AmUoAPjEUKg0dNuLqrkMp2guhGTEAIA4Ozw5KufdxboZBYmAQBmMmPLte39tV3235oE1g2bhBEAhF4JGxwF+iCjVWTdzO7WvhnfNn7qt+TvH7IackXWnoiEEgAA3f7JP3rWsWRKgKlZRL3M7tajszqdNwLQA7hVYqrzW4xb+eiCLBH1JyLhBADAOX/aVRsci6cFWPIoqZPV03pkVqdzKULhj6AH+NGAL90zbDUW8Tvqjr0TUgBwQUJWtBKyelqPzOxwLgMwzgcwXUnMWwJXNXzhtxh/pqDVS5KwAgDgnF8/e4NjcZZfltyRrMvqnij87/FjgKv8FuOewcrF86Jq9BIktAAgJOG5+sXTw5WQ1d16ZGZn2OGPgu/QUdDhr8zfxJV506JodUwSXgAQkvBsfcGM4eClJWR1t0QZ/gUyQCgNkNQQsBqFjL2TQgAA9PrTrtzgHF9CVnfL4ZmdDUrCH80cZt4esBqODlcalysplDQCgFESZHKNvv18+IUQE/4oqJCIDw1bjOVcmRfV2DupBADnJTiWzBqRMONs89GZnQ3LITz8C0gEXhsgyRmw5v8q4sVqdBRregP6KzY4lsyacrpl3/SupkJo8zxnMOMt5sj2SkoBAFC477Dzv+ubCnmYFB2sRYiDCHIkC5JSwOrPrJ+vPlB1U6APs5r/Js2Wh6lJ/V1pl86f9stIVyWdgNv2W6pXH6i6Ceefm7+XZzQ/RT+QfahXactGItyuN9l+Q7fVnIt0cVIJuG2/pXrVweqbcdHzCgxienOZNEewhG4QHtfNlo26lfaPoi2SNALWfDp2+COMSGAfHAq3ChDwuk7S5ehX2l+gPMewkmJJIWDNp5ZqU+X44Y8QGMR0T5l0jQIJB2WJb9SZ7H+gFbVdUdb4HgkvINzwRwgMYrr7aelaOQIJBLgJ+J3eZF89ecVJW9TNjkFCC1iz72C1qbL6FkT4PII+ZHnCk9APpmcmcW++zmTfGX2n45OwAtZ8fKDaZD10C6K85tEoCSfHuJsZVKFjeYF+la2MVrX4lHU7PgkpYM3HB6pNVYejDn+EoA9Z7jKae5GE4wBuTjPZHqBVjojP1o6UhBPw6z2fHBIR/gjyIGW6y2huoJcqCXSfbqX9J3qT/YiI2uEQs/NhouHO3fusy48cXym47CAP0j9bi33PLWps7BVce0ISRsCdH3xkXX6sRnT4ewNEf15y4kSL4LphkxAC7vrgI2uhwPAZqIUsrzPa7VWiakZL3H8G3PX+h+LCZ/4WzOsaFi5cFg/hA3H+Crjr/Q+thV98KSJ8P4B/Den1Ty2tqTkHm9BjKUXErYC7d+21Ljteqzx85s+kSZOK8mpr1ZqGKiIuBdyza691qcLwCWhior/k19V9KKovNYg7Affs2m1derxOSfg9DGySAoGXDQ5lk0otiCsBCsOXAeyQmYsLbLZLXZcorogbAfe8u9u6tCbq8CtJktYbamvrhDalAXEhQEH4p4n5SYPNVi68KY2IuYD7/v2exWCvN0W4bABEm6f19GzKblFvUqkFMRVw/453LXknnaYIljAB75JOV5xXUyPyp0oxI2YCIg6f+T+QpCLDiROH1etKe2IiYO2OnZbckw2mcB7LQBuInsmvq3uDENlJT4mA5gLur9hpya0PK/xhAK+m+XxPxmJMrBWaClhb/rYl19lkCuOhe1mWi4x2u5Af4sUzmgkIK3xmJxGtN9TVfaJNV7FHk3H0AxUThn8WzOucOTn5l1P4gAavgAfL37bkjB++n4A39TrdEzk1Nd/E05hYK1QV8OD2tyw5DS7TmHcyfyYD6wtstrFOC7lsUEUAMfNDb1RUzW9uNY1xt4uJnjDW1alyolOiIVwAMfPDb+yoym5uvXi20weil9L7+jZe73YPid43UREqIBR+xcXhywB2IBg05588Ge5Vci8bhAkgZn749Yrq7Jbvwmfg2CTmojyb7ZiofZINIQJGhT9yKeGvifkJg81WQQCL2CNZUXwcQMz8yOvlI+EPgOiZ3oyMhQabrTwV/sQoeQX0E3PG7199s2ruV2dWELBTkiTzDbW1Qi+mlOxELYCZNj305o6b5311hkB0S7KNiVOkSJEiRYoUKVKkSJFCLf4HtGNbrNDAX48AAAAASUVORK5CYII=;" parent="1" vertex="1">
          <mxGeometry x="316" y="203" width="40" height="40" as="geometry" />
        </mxCell>
        <mxCell id="RAJVKOpdcDavsLiYcgov-67" style="edgeStyle=orthogonalEdgeStyle;rounded=0;orthogonalLoop=1;jettySize=auto;html=1;exitX=1;exitY=0.5;exitDx=0;exitDy=0;entryX=0;entryY=0.5;entryDx=0;entryDy=0;" parent="1" source="RAJVKOpdcDavsLiYcgov-20" target="RAJVKOpdcDavsLiYcgov-3" edge="1">
          <mxGeometry relative="1" as="geometry" />
        </mxCell>
        <mxCell id="RAJVKOpdcDavsLiYcgov-69" value="Criar conta" style="edgeLabel;html=1;align=center;verticalAlign=middle;resizable=0;points=[];" parent="RAJVKOpdcDavsLiYcgov-67" vertex="1" connectable="0">
          <mxGeometry x="0.6577" y="3" relative="1" as="geometry">
            <mxPoint x="-11" y="-12" as="offset" />
          </mxGeometry>
        </mxCell>
        <mxCell id="RAJVKOpdcDavsLiYcgov-20" value="" style="shape=image;verticalLabelPosition=bottom;labelBackgroundColor=#ffffff;verticalAlign=top;aspect=fixed;imageAspect=0;image=data:image/png,iVBORw0KGgoAAAANSUhEUgAAAGAAAABgCAYAAADimHc4AAAABmJLR0QA/wD/AP+gvaeTAAANLUlEQVR4nO2de3gU1RXAf3dmH9nNbngEEJIoQRAREYFWMKBtlVZaPqSWouKr2oqloIZi0a+2tVVbaysWNYI0SkVbbfv5AqNWLRXbItiKLYJGBUPCI4LII2SzyWZfc/vHgjwyYWdnZ2YJ3d/35Z/sveeePWfmnnOfC3ny5MmTJ0+ePHny5Pl/Q+RagaMxcFFLnyRiJMhTBZxK6q8PkkKgB1C4v2gr0ISgFclOBBuRfIgUG9SkXFtXGdyVq++QjmPKASXV0u+Jt3xFCHE+CuchGUb2OkrgXSF4XUq5It4eXN54k4hYoK4l5N4Bt0vl5N4tY6UQVwHTgCKbWwyBfB7J0w29g3/hEpG0ub2jkjMHlC+RBUpb+DtSiLkgB+RIjXohuFeJBx6tqxTRXCjguANKqqXfm2idhZA3Af2cbr8TdgjEve1q4W+3zxBtTjbsqAMGLAxdiFCqQJY72a5hBI1ozGm4PviMc006QPmipnIh3Q+CnOREexZQI1TXjfUzfFvtbsh2B5Q/FLpIIB4llTZ2JUIIrmuYGXzKzkZsc8CgKulNquF7EFTa1YZDPKwmApV2BWlbHFC6IFTsUcSLwNl2yM8Bq+IebXLj9G57rRZsuQNOfLC1xOXSXkFyhtWyc8wHilQnbLrev81KoZY6oLw6NEQkxV+BE62UewyxFeQFDbOKNlgl0DIHlC1qK3XLxCoQ/a2SeSwi4GOpucY13ODbYoU8xQohpQtCxW6ZXH68Gx9AQqlQEn8pW9zc0wp5WTtgUJX07g+4p1mgT5dAwlBXTHlhUJX0ZisrawckXeHfkINsp8AFlw91M3OUh54+56e0BIxNquF7LJBjngELW6YieDpbJTLlSyep3PkFL2XB1PPz4R6Nyc+0kdCc1gSE5Jv11wefM1vf9BtQvqipHMFis/XNMqRY4ZGJvs+Mf+B/V5/hdloVAKTgdwMWREzHPtMOENJdBXQzW98sg3sqqDrvbeXnPRTnoCsCuqMmHjBb2ZQDyh8KXQTyQrONZsPKbUlaYrLD/4MewdwxnhxoBEi+PmBhyJQ9MnZASbX0C7jfTGNW0NQuqXo7pvvZxUPcDO9jSWadOUJ5oGy+9GVaLWNtvcmW63Od7z/2bpyP9naMuIqAn57jzdEynxzgKmidkWmtjByQynvF9zNtxGqSGty5Sn9yctQJKhee4nJYoxQCeUv5ElmQSZ2MHKCp4WuBkoy0sgAB3Pg5D89M8TH7LA9+t2BVY5IVWxK65X94the/OyfvQT/aw1dnUsG4A26XSmoB3XkuG+pmzmgPo05Qmf15D3+7zM8XTlT5xaoYcZ3cv29A8L2RuUlLkdyMlIa9b9gB/XuHv5iL3QvdvYIfHJHd9C0UPDShgF1tkiXr9QPydSM8nFjkfEAWMHDAwvC5Rssb1lCk9u04zpzRHnoUdHygfG5BgQsW/CfOrraOaalXhR9V5CgtVTBsK0MOKJsvfQI5xbxG5vC54K3tST4JdzTw8oYEeyKScEwy79/6b8GEk11UlKp2q6nHJUZTUkMOcHlaLiAHo97FE31MG+rmu69EeODtGNH9e9hiSfjVmweN/uyHcdZ9qr/B7fZzvajO90RFnoLQ+UYKGlJNCGFImJVMHJh6eseVqTw3xU83r2Dy020s3ZjgkXdibG4+GH0lcOcbMTq+J3BKD4XLhzofkKUU5xkpZ+zZUDAkzCoKXHBrxcGpdpcC15zh5vELfbxan+C+NR27nLU7kyzbqJ+WdhZHbEWI8UaKpXXAwEUtffbvUnaMGSM9lAY7GqxvYSrwanqPOnD36ihhnXmi7l7B989yPCAPH1wd6pWuUFoHpPbnOze67xcQfHeEvrH++0mSFz7Sf8oBdkcki9bGdT+7/HQ3Q4odDQZKIqmMSFsovRx5qhXaGOUnY734dGYSNAl3vBHV7ecPZfER8eEAqoDbxmW9gpgR0oDt0jpg/8kUR6goVfnaQP15nD9/EOfdXemXvOIa3P2mflpaUary1ZMdnSfK3gFIBluiShqO9oQ2RyXz39I3qh7LGxL8Y6t+WnrbOP03zCYscAD0tUCRtFw5rPM++oE1MfZG0nU+h3PX6qjuGnG/gODaMx0LyGltZ+BZkEEzMfj8/i5+ek76LxqOwaxX25ndSZby0V6NSAL+foU/o/Zv+2eUJ2rjXKOzVvy9kW6e2RBnzlkexpSkHynPXRHl7R1mTjKJYLoSBhyQXogehW44ycBk2F2ro1w3wk13r76T56+Jcce5Xvr4M3sIbhvn5dJlESYPcnXYtuJ3C24928vv1seYOsSd9vEy32XJtLYz0gUFzDafjromjTU7kkzrZKT6an2C04qVjI0PMKiHwlcGuDqNHZNOcRGOwUt1nae1FmCJA2zjjjei/KjCq7vLoT0Bi9fFmX6m+WmEm0Z7qKlL8P7uw4NB7W6NacsihGOp4K63puAURhwQtqPhlzcl6OkTjO6kD374nRiXnubKamWrj19w7ZlufrYyNX7YF5X8fFWUi5e2May3wmuX+xldovJkrf7gzQJa0hUwEoRbQGS8EXVfVPJeJ3m7JuG+NTEen6Q/Y7sjLFm2McH9Xy7oVIZRKkpUHnknzi0r2lm+OUlFicorl/o/i083j/EwdWmEEX0UXIq+s8PGM+AjEFY4IL0QPVZuS7JyW+cnPueM9tAvoP+F734zyuZmjYuete7E6LMbEjzytQLGlx/+lYt9gqtOdzPlOTsOz8u0tjPSBX1igSaHcVKR0ul8z9s7krYFxvd2679NV5/hZnBPW8JhWtulb1Ww0RJVDuHWCg9ena4/Kfmsv7aDh9fG2K6zuqYqcOlptqwZpD1Jk9YB0oCQTBhbpjKhk/mYP9XG+WCPfSlJJJGasj6UpvZUYP7lalsOQWbvABCWOUBV4Gfn6M/37ItK3YUWq3lpU4J/b08S11Jp7sSn2ujlE6yfHqBmqp/ybtZ1RcKA7dIGYVdc/jfpQmLBmkAvn9BdMAG4760YTe12dT6H8+N/pJ72IcUKS6f46bs/GRjWW+HJyT4mPd1mhS5aVNPWpiuU1t11lcFdCN7LVhuPCqP6qkx9LsLcFe18eshWkg17NP74vm25eAfq92kUumHBBQWfGf8A/QKCW63ZzrLu4xuK9qQrZGxRHlZkq82oE1QWXlDAE5N91O7WGP/HNqrXxoglUyPipMOj0aJO5p4AvjHYTa9szxpIachmhhwgDQo7GuPKUmlPRanKi1P93Hy2h9+ujXPuE638a7vzdya9u0vrdApCVeBL/bNbNBCqap0D4u3B5UBzNgqNLTuYd6oKfGuYmycn+9jrUL9/JKGoPOoUxLDeWQXj5lib/3UjBQ210niTiEgpnjWrTdAjGN778MS/sUVj5qvtjnc9hzLvX9FOlzn7FWbRBQmeMnovnXE3K/IPZvUZU6IetjttS3NqNnJbKIfWJzUuuKImwgs6I29XNi+ANG4rw81s3hn4J1BvRp9xh3Q/m/ZpTHs+ojsizQXhmGT28nYql7fTHD2o0z7z47K6hpnBN4wWzuB8gNCE4F4zGh3o/zfu1bhsWYSdrceG8Q/lxboEV9ZEiOx/GTbqHIEyyDyEMPwFM3rRlHjgUWB7JnVOKBQM6qFQu1vjsucj7M5wcd1JandrPLY+tcf0bw0mJgQFjWoi8HgmVTJyQF2liCLE/EzqjClRWf9pkitrIo6NdLOhpi7By5sSbNqX+RsgYV6mN2tlHOpLqqXfm2ytNXrzYTevIK5BW/zYN342SNiELzBs87dFeyb1Mo7122eINg0xy2j55qg87o0PoKDNztT4qXom2DKr8GWgxkzd4xEhWVo/q9tLZuqavytCdd0I7DNb/ziiSaDONlvZtAPqZ/i2CiGvAtsWsLoCUhPy2mwu8stqwqN+ZtGLSB7MRkZXRgp5/5aZRUuzkZH18o+aDNwiYXW2crogKwuLgz/MVkjWDqirFFFFjU8E1mUrq6sgoTbu0S6qvURkvYaav7YyUwSNQnGNs+pib8tWoBtn+j8GJgC23zieQ7aKpBxv5a3qlh++61/d2k9Jaq8Aw62WnUsEvC+k+lWrry62fDvYlhmFO+Ie7bzjLDCvTJA8x2rjg03b0xund9tb/mngiwLxa7r2OEEiqfL3Cnx566zuTXY0YP8POCwIfV0oYgld8QccYHrDrKCt96LafkBj8w1Fz6O5RtKF5o6EZKki1WF2Gx8c/hGfkxeFJkmpVOXwZ6vSUS/QKs1OrJnB8YvVyuZLn6ugdYaCnCuh1On2dRE0Sk3ci7+w2syUcnZN54hBVdKbcIevQXKzgIE5UqMOmOfvFXjMilGtGXL/U4bAwIdaP6dJ7VsIrgCKbW6uGWSNQPl9/czC1zJZQLeDY8IBByhfIguUSGi8JsR4kbrwaDjZJwoasA7k60JRX9O8/hVOdzNH45hywJEMrg71iktlJJocjGQIcCqCPqTO33bn4BnmMKnFoRZgJ5KNCD4UiA1RTVtrZJdynjx58uTJkydPnjx58jjF/wDMq2M3bgkjxAAAAABJRU5ErkJggg==;" parent="1" vertex="1">
          <mxGeometry x="316" y="152" width="40" height="40" as="geometry" />
        </mxCell>
        <mxCell id="RAJVKOpdcDavsLiYcgov-86" style="edgeStyle=orthogonalEdgeStyle;rounded=0;orthogonalLoop=1;jettySize=auto;html=1;exitX=1;exitY=0.25;exitDx=0;exitDy=0;" parent="1" source="RAJVKOpdcDavsLiYcgov-22" target="RAJVKOpdcDavsLiYcgov-76" edge="1">
          <mxGeometry relative="1" as="geometry" />
        </mxCell>
        <mxCell id="RAJVKOpdcDavsLiYcgov-87" value="Responder questionário" style="edgeLabel;html=1;align=center;verticalAlign=middle;resizable=0;points=[];" parent="RAJVKOpdcDavsLiYcgov-86" vertex="1" connectable="0">
          <mxGeometry x="-0.4901" y="-1" relative="1" as="geometry">
            <mxPoint x="12" y="-17.5" as="offset" />
          </mxGeometry>
        </mxCell>
        <mxCell id="RAJVKOpdcDavsLiYcgov-22" value="Tela com apresentação e &#xa;termo de uso" style="shape=image;verticalLabelPosition=bottom;labelBackgroundColor=#ffffff;verticalAlign=top;aspect=fixed;imageAspect=0;image=data:image/png,iVBORw0KGgoAAAANSUhEUgAAAGAAAABgCAYAAADimHc4AAAABmJLR0QA/wD/AP+gvaeTAAACyElEQVR4nO3dsWtTURzF8XNfSgdtogUxTupsxUWl4CAIJlJC6ZTu1jq4OEjBP0KKdHCRVlczSdHQmgputQ4JCEHX4lKwltBEHcxLrkMpiE0Kpbm/k+r5jEnpeX1fXpIueYCIiIiIiPxvnPXg1VvjIxHcNOAyAM4DOG59DH/5AWDdOZS8w/yHpcVPluNmAUby+cFkvTnr4e8BSFjtHlALHk/irfRMufy0aTFoEmAknx8cqv8qArhpsXd4biX+djpnESEKPQAAyXpzFkfm5AOAzwyc+vrIYin4FbDzmh99RP++7HQTu1Z0ae3ty88hR4JfARESd3H0Tj4ADLQTfjr4SOgBwGc6PXrx8jXkJm8jmRoOfwj7aNRrKBaeoVp5v+e5CD4bet/iPeBspwf74eQDQDI1jNzkVMfnPHAu9L5FgKFOD/bDyd+VPNH1WJKht00+BUl3CkCmAGQKQKYAZApApgBkCkCmAGQKQKYAZApApgBkCkCmAGQKQKYAZApApgBkCkCmAGQKQKYAZApApgBkCkCmAGQKQKYAZApApgBkCkCmAGQKQKYAZApApgBkCkCmAGQKQKYAZApApgBkCkCmAGQKQKYAZApApgBkCkCmAGQKQKYAZApApgBkCkCmAGS0AI16jTW9R2Obdyy0AMXCc+ofvquxXcPrwgJt3+Db0zurVlZRrayy5vuG3gPIFIBMAcgs3gMa6MH38N8YGz/Qz79benXYSQCo9+KX7MfiCvhisBGEMzj24AGcQyn0RijeYTn0RvAA3mEeQCv0TgBx1G4H/wfB5E56o9mJOTjct9jqFefweG158UHoHZNPQfFWegZwKxZbPeFQam6mH1pMmdxgbWOj3D5z8vqL6NjPFIAr6N+Pv7FzmIs301P/1M08/zQ6NnHBt92dCD7rd25n2/E2V4a+O2Ddw79xrcRC6FsXioiIiIiI/AZRsIuCVhjmigAAAABJRU5ErkJggg==;" parent="1" vertex="1">
          <mxGeometry x="680" y="190" width="58" height="58" as="geometry" />
        </mxCell>
        <mxCell id="RAJVKOpdcDavsLiYcgov-97" style="edgeStyle=orthogonalEdgeStyle;rounded=0;orthogonalLoop=1;jettySize=auto;html=1;exitX=0.75;exitY=0;exitDx=0;exitDy=0;entryX=0;entryY=0.5;entryDx=0;entryDy=0;" parent="1" source="RAJVKOpdcDavsLiYcgov-34" target="RAJVKOpdcDavsLiYcgov-43" edge="1">
          <mxGeometry relative="1" as="geometry">
            <Array as="points">
              <mxPoint x="985" y="315" />
            </Array>
          </mxGeometry>
        </mxCell>
        <mxCell id="RAJVKOpdcDavsLiYcgov-98" value="Editar perfil" style="edgeLabel;html=1;align=center;verticalAlign=middle;resizable=0;points=[];" parent="RAJVKOpdcDavsLiYcgov-97" vertex="1" connectable="0">
          <mxGeometry x="-0.1063" y="1" relative="1" as="geometry">
            <mxPoint x="16.5" y="-3.5" as="offset" />
          </mxGeometry>
        </mxCell>
        <mxCell id="RAJVKOpdcDavsLiYcgov-102" style="edgeStyle=orthogonalEdgeStyle;rounded=0;orthogonalLoop=1;jettySize=auto;html=1;exitX=1;exitY=0.5;exitDx=0;exitDy=0;entryX=0.5;entryY=0;entryDx=0;entryDy=0;" parent="1" source="RAJVKOpdcDavsLiYcgov-34" target="RAJVKOpdcDavsLiYcgov-42" edge="1">
          <mxGeometry relative="1" as="geometry" />
        </mxCell>
        <mxCell id="RAJVKOpdcDavsLiYcgov-103" value="Responder novamente" style="edgeLabel;html=1;align=center;verticalAlign=middle;resizable=0;points=[];" parent="RAJVKOpdcDavsLiYcgov-102" vertex="1" connectable="0">
          <mxGeometry x="-0.6283" y="-3" relative="1" as="geometry">
            <mxPoint x="36" y="-20.5" as="offset" />
          </mxGeometry>
        </mxCell>
        <mxCell id="RAJVKOpdcDavsLiYcgov-34" value="perfil" style="shape=image;verticalLabelPosition=bottom;labelBackgroundColor=#ffffff;verticalAlign=top;aspect=fixed;imageAspect=0;image=data:image/png,iVBORw0KGgoAAAANSUhEUgAAAGAAAABgCAYAAADimHc4AAAABmJLR0QA/wD/AP+gvaeTAAAOA0lEQVR4nO2da5RU1ZXH//tWdXU9+kFXQz9pAQU7EXw0MQRRo0LUgagLjYkmGWeELE1mQJOIgnHNGuOsZK0ITOKgjq7+QGZCHKMQDKCYiFECAy4XChHtBkTopl/VD7qqq6rr1XXv3fOhG4Smu++5956qhkz9vtHss/euveve89rnFJAjR44cOXLkyJEjR47/b9B4OzAWnZ3Rsjyd6lhRasGoJaAWoDKAfQBKAPiGRGMAQgDFwHoXE30KwmHSlSMuSh8orCzsGb9PMTbnVQI6OtjrUuI3k07zQXQTwLNg30cG8DEY7+oKv5NMe3fU1FBCgrtSGPcEMLMSCiTnsYL7wPq9ABVl2GKEQFtAvLGk3LudiLTM2hubcUtAUxO7i93xpQx6FMC0cXLjOIHXlvR719MMSo2HA1lPQEcHe/Mp8c8AHgFQmW37oxAAY20KnherqiieTcNZTUCwM3Y7M60DMDWbdk3QBuDHpZXeTdkymJUEhAKJqRr4WQJuy4Y9uxCwFUwP+as8LVmwlVlOdsQWE9F6DA4bLyA4AtADpZXeVzNpJWMJ4KOcH/QlVoPwcKZsZAWien/U/XCmOumMJCDSFilNO5yvA5ibCf1Zh7DHmU7fUVxTHJSvWjI9PbEqRVX+CPDlsnWPL3wIOt1aWu1tlalVagJOdqS+QKS9BaBGpt7ziBZdV26ZVO0+IkuhtAScbI1XkxN7AEyRpfO8hNCu6HRtSZXnhAx1igwlkbZIKTl5B/7Wgw8AjGqd9O3h1rBfhjrbTwAf5fxgQWInMtjhRkI9aD70EbpaP0NvoBWJeD+SiX4kYzFo6sBZsrcveRS1dfMy5crnMPb6Y575dkdHTrt+hAoS/44MBF8dSKHxg934aO+f0NVyTLjdnzfWo2bGLHgLMrymR5gX9CVWA/ihPTU26A3E7waw0Y6O4TAzGvftxO5tL6E/bG3UV1s3D7cveVSmW6PCjG9MrPJuttrecgJCgcRUHfgrwMVWdQwnHg3jzd+uQ9OhA7Z15bnc8BWXoLCoBJOnz8L0K76MsskXg0jyyJvQp+h0ldVO2bI3JwPxrQTcbrX9cHq72rDxuZ9a/taLUH7RJbhx8f2omT5Tql5ibPFXeRdbamul0dD6zmtW2o5ET0cLNj7/JOLRsCyVY3LFNV/Dgm89CIfDdhd4GiK+w1/h22a6ndkGQ+v5jZA05IxHw9iw5jFE+07KUCdMzYzLcecDq+Bye2WpbIqrnplmtztNzwPclFgGScHXNQ3b1q/JevABoPXox3j9v34JXddlqZzmdSS+b7aRqQTwUc5n4EdmjYzG/l1voPVYoyx1pjneuB+7t/1WnkLCyqYmdptpYioBoYL49wBUmXJqFGLhEN77Y0aX2oX44J0tCDQflaWusjg//o9mGggngJmVoQ10Kex+43+QSsjffq0oZiz5qo7ZU1lInpnx9qZ6MIvJG6ETPcbMwn2r8DDgZGfyBkVS9UK0rxeH9v1FhqrTFLmB+TN1XD2NoRAwZSKjLaigO2Ici66WYzje8CEumXW1bT8IuKQvkLwewC4ReeEnQIF+n2WvhvHBO1uhaaoUXS4HsGCmjkcWaZhz8WDwT/3923N1uBxiet5/2/Jk9hx0QDhWQglobWUPoNxl3aXP0TQVjft22tZDAOqmMFYs1LDgMh4x0OXFwB2zxUY5HccPo6dD0h486d8ajJkxQgnw5MVvkbXk0Hzor0jEorZ0TC9jLL9Fwzfn6Cg0+Jizp7Jwf3DoA1mvRSryOePzRSSFEkA6CSkT4cj+PZbbnupgl96go9LE1+GO2TrKioyTYMe34TDoJhE5sT6AxJQZwcw41rDPdLtCD3DX1TqW36xjRrn50YpofxAOdiPY1WZa/4gQFoiIGSagszNaNlSlbJvu9mZTQ89THeyKhdrp0Y1VRPuD5sMfWTdyJowrIh2RiUZihgnI06kOkvaO2z77REhOpIO1gkhf0NF0WI4xQBlwuK4yEjKcB7Ci1JKcOQpajzYYyswoZyy8klFRLMmoSSTOigFdqwXw9lgixhMxRq0sf3ramw1llnz17NfEkbYoNu9uBxHhzmurUFtTOGZ7s/LDCQe7kUrEke+xv0qqgAxjZ/gKIuZLbXuCwT3eSMj8SaHX/rcDkbiKcCyN1/Z0SJcfiXBvp6V2w2Fi+wkAKRUynAl2t0tbb8k0oZ6AHEVMhrETGIayuWd4FE52Wqvou/PaKhT78lDsy8Nd11VLlx+Jvh45TwAAw9iJLMZJSUAkaO2gYm1NIR6/V7wbMis/EqGT2UuAyESsQIIjiEX6ZKjJCvFISIoelpQAKcSjF04CkolY1myJJKBfhqH4BfQEJONyEkCA4aqjSALsLV0OEe+PyFCTFVIJKd85QE4CSEoC0gPjcgzXEhJ9lZAA1qUMCVQ1LSSXyamCqG5NlXR4ntgwdoYJYKJPZfgyvIx8NHYdytw1DjsbkkJyrMvZLiUmw5M0AjNhSDmOo6liH+qFt/pxokdOAM6ktVdD/dti/dDcW78pxaYOtp8A0nUpCdAFN+ETAzp+vrkPfXFpFWsIxXT826Yg4gPG76B5C+/BvIX3yDGsOOwnwEW8H4NXvtji776zHHkusaKxrrCGR/47iONd9p+EEz0qVm4IojtsnFCpwQd0V3rAsM7eMAGDlx2R2E7KGFw250bc99hqTKq6SEi+N6rhiZdD2Nko9t4eiXc/SWLlS0F0R4w7VcnBBwMfFU0u6jWSE5sJM79j2yMA/vLJ+O6K1bhy3s1C8okBHb96PYxodwpqSvyVpCZ1RLtSeGZ7GMlsv3aGIEAoZkIJ0BU5CQAAZ54LN9/7T1j09w8Lv5K0lI7+7hQigSQSfWmoSR26xoMvRgZ0jaGmdCT60ogEkujvSUEbEEtYJoIPAASxmAmVJibT3h1eZzIs8zjSZXNuRMWU6dj267XCBVG6ykhFVaSickZJmQo+QOGY6nlXRFLoCRg8dKD/3p5T52L2lSSTzAUfAOFV0YMawsW5OpQNCnipda9GcWDolVR98Rex49V6AMDUtBPXx92YG3dhsupEMqgi6Tf3rXf3OrCltQxtThXveVPY5U2iJW+wM85o8AGQjg3CsqKCzKwEOxNHAVxsySsBwtv/BPeLr6Cy5ewTM/x9oL94ABrE3usOJhSE80H1Z/yRCO1TJ+HgosvxlQdsHe0dEwI+K6nwXEokVksivB9ARDqB11p3bXQcJzpQuOwpTHvi+XOCDwB0glBQ6BI6YkoEFBTmg5qH/Qczqpu6sfD5P6PwB/8KR7OkCrjhMK8RDT5gsuBq6FqC45B0SgaqBk/9K/Cs3wSMtVRRA2AlQQvpiMZSo08LCSgsyIdjggKsZmCMbWh2uZB88B4klt4NWyV3Z9Pm7/dMN3N9gakdsSHFvzTt1ki6QhEUPfAv8NT/buzgA4OB7AYcJQoK/fmgEQJGCqHQPxT8LowZfACggQF4ntuAwmU/BUXlbMAwYY3ZuyNMb0mm2PMCgGaz7c4y2tGNovtXwXnAuFLuNEPnTRxeBUUVbuT7nFAcBMVByC9woKjCDYd36OPsEl85yXvvAIqWrILSbe+AOAPHoglPvbHk2Vh69oKB2EIGbbfSlkIRFN2/Co4T7eYa5gF4kgCjmUgfA08BMDlV0KZUIfrrp6H7rU11CHybv9L3htl2ljbl/ZW+NwnYarqhqqJw+VPmgw8AaQC/YYw5EGIAL5Hp4AODA4GCFb8ArGzGEF6zEnzATlUE00MgmNpp9677DZwNNopfPwXwB4zcCTOA3wM4bH3h1nmgAZ4XXzbbLATN+pU1trr/YGfsNmbaKqLHcfg4ir/zY0CXsOc4g4Bb+PP7d5sI2MGAjMJmh4Lwy89Au3SqoSgGz5x8Y2KV1/K9GbbHX70d8f8QuRu0aMlPzHW640j6mjpEX3jKWJDwq9IK7yN2bNkuzPLHPCvB2DuWjPNA4wUTfGBwZCTwqtzt7/U8bteW7QTQDEqRO7kIjFHP9rg3vmnXTNbJf2WsQR41ONX0YppJYpUGYyClNNHv94dZw9cBnHtrlKoi7933ZZjJKq4de4D0iKU0bcRYJOsWXWm1oRNrvO26rtwK4KzF/bwPG0AJ69uK4wUlknAePGdPvUXXlAUyb1WXWpw7qdp9RHfyXAAHT/3N+eGF8+4fTt6+j8/4FzdCx3WTJrul1EmdQnp19KRJvoBTTd90qmPO2KpjFjhjwrjbMZC+Tva90UCGytOLa4qD/krPDQw8rbRIOu4zDijN7QBjnT/o+dqEKRPkHBoYbiMTSgGAiNSJld7H1dm1P2N/ibwqqyyhl05g9UuzflFa5f2hjNHOaGTlJ0xi6zbVud7a+7pz30E5+wgZRv3KlW2p+dd8veBHdx80lrZHVn/EJ7XqP59w7nz/SaW53ZVNu6JokyvT6euv+rnnmRUC02A5ZP1nrHrXbS/yfXJwfd57+xcr3UFJlxDYQy+fqKlz6zaHr5yztGzZTdJOZ4gwbj/kxk9vKRxoPvKcc9/H9yqtgXF5IrSLqge0q2e97PKVL6O1/5C9g2FnMO4/ZQgAieVrljhOdD7qbPj0ixRLZNQn9nlYrZt5TP3CtGc9P3vwWTMb6JngvEjAKXrXbS/ythx7yNEauMtxrPUypb3TbXv5WiFokyuT+iU1DVp1+eb4lOnPlT686Lw5sHZeJWA4iTWvTuOu7rsdnT3zkEhMd0QSFRTqK6BE0olkykHJFAEAu/MZ7nyNPW5VL53QzwW+AHvcn2llJXtpUtkmz0++3TzOHyVHjhw5cuTIkSNHjhw5TvN/rRRHYDYxbZ4AAAAASUVORK5CYII=;" parent="1" vertex="1">
          <mxGeometry x="940" y="340" width="60" height="60" as="geometry" />
        </mxCell>
        <mxCell id="RAJVKOpdcDavsLiYcgov-104" style="edgeStyle=orthogonalEdgeStyle;rounded=0;orthogonalLoop=1;jettySize=auto;html=1;exitX=0.5;exitY=1;exitDx=0;exitDy=0;entryX=1;entryY=0.5;entryDx=0;entryDy=0;" parent="1" source="RAJVKOpdcDavsLiYcgov-42" target="RAJVKOpdcDavsLiYcgov-83" edge="1">
          <mxGeometry relative="1" as="geometry">
            <mxPoint x="830" y="440" as="targetPoint" />
            <Array as="points">
              <mxPoint x="1101" y="478" />
              <mxPoint x="920" y="478" />
              <mxPoint x="920" y="432" />
            </Array>
          </mxGeometry>
        </mxCell>
        <mxCell id="RAJVKOpdcDavsLiYcgov-42" value="Tela com questionário" style="shape=image;verticalLabelPosition=bottom;labelBackgroundColor=#ffffff;verticalAlign=top;aspect=fixed;imageAspect=0;image=data:image/png,iVBORw0KGgoAAAANSUhEUgAAAGAAAABgCAYAAADimHc4AAAABmJLR0QA/wD/AP+gvaeTAAACyElEQVR4nO3dsWtTURzF8XNfSgdtogUxTupsxUWl4CAIJlJC6ZTu1jq4OEjBP0KKdHCRVlczSdHQmgputQ4JCEHX4lKwltBEHcxLrkMpiE0Kpbm/k+r5jEnpeX1fXpIueYCIiIiIiPxvnPXg1VvjIxHcNOAyAM4DOG59DH/5AWDdOZS8w/yHpcVPluNmAUby+cFkvTnr4e8BSFjtHlALHk/irfRMufy0aTFoEmAknx8cqv8qArhpsXd4biX+djpnESEKPQAAyXpzFkfm5AOAzwyc+vrIYin4FbDzmh99RP++7HQTu1Z0ae3ty88hR4JfARESd3H0Tj4ADLQTfjr4SOgBwGc6PXrx8jXkJm8jmRoOfwj7aNRrKBaeoVp5v+e5CD4bet/iPeBspwf74eQDQDI1jNzkVMfnPHAu9L5FgKFOD/bDyd+VPNH1WJKht00+BUl3CkCmAGQKQKYAZApApgBkCkCmAGQKQKYAZApApgBkCkCmAGQKQKYAZApApgBkCkCmAGQKQKYAZApApgBkCkCmAGQKQKYAZApApgBkCkCmAGQKQKYAZApApgBkCkCmAGQKQKYAZApApgBkCkCmAGQKQKYAZApApgBkCkCmAGQKQKYAZApApgBkCkCmAGS0AI16jTW9R2Obdyy0AMXCc+ofvquxXcPrwgJt3+Db0zurVlZRrayy5vuG3gPIFIBMAcgs3gMa6MH38N8YGz/Qz79benXYSQCo9+KX7MfiCvhisBGEMzj24AGcQyn0RijeYTn0RvAA3mEeQCv0TgBx1G4H/wfB5E56o9mJOTjct9jqFefweG158UHoHZNPQfFWegZwKxZbPeFQam6mH1pMmdxgbWOj3D5z8vqL6NjPFIAr6N+Pv7FzmIs301P/1M08/zQ6NnHBt92dCD7rd25n2/E2V4a+O2Ddw79xrcRC6FsXioiIiIiI/AZRsIuCVhjmigAAAABJRU5ErkJggg==;" parent="1" vertex="1">
          <mxGeometry x="1072" y="400" width="58" height="58" as="geometry" />
        </mxCell>
        <mxCell id="RAJVKOpdcDavsLiYcgov-43" value="" style="shape=image;verticalLabelPosition=bottom;labelBackgroundColor=#ffffff;verticalAlign=top;aspect=fixed;imageAspect=0;image=data:image/png,iVBORw0KGgoAAAANSUhEUgAAAGAAAABgCAYAAADimHc4AAAABmJLR0QA/wD/AP+gvaeTAAAO+ElEQVR4nO2da3BUx5XHf33vjGZGLwSSEEISyFi8EeZpzEMEMOYVjMBIYENtSK2dQMDr2rAmlp3gVVXCgjfBlXIckzh2ba03iReDg212bcCAAQnj4IQNxCDzWmMIAoMs0CAkzUhzez+MhDRiJM2j74xg9a/SB7W6z+n7P336nO7bfQVd6EIXutCFLnShC13oQhf+v0FEuwMdYW1+fq5hd602PExGkC4hRoDeUTtDyl++sHXnk5HoYziwRLsD/rBmyZwR1gbP61KK3AZcVgxuDZVAR4wuxHKg0xugU3nA84tnL603jJdA9FAh707wgk7hAUXfnpUtbrKv3pB9VY6JO8ELou4BRQWzNwkhV5ipQwIawgCjDsHnhkf/2Ya333/TTJ2BImoGKC4ujnF99kkZgn7R0C+kbJDIreu37nosGvpv9SMaSounTIl3pdovA3HR0N8SQsoGIeWqdW/vejUq+iOtsLCw0JEjnFeRIurkt4SUfLxh646JkdarRVif3hnJBxCCCUWFs76ItN6IGqBo0ey/dkbymyAg+9mCmWWR1BkxAxQVzN4kpBwcKX0hQ4hBzxTM2hIpdR0u6VVgbX5+rrQ0vB4JXSogBEO+kZtzteT4mU/N1hURD/DYXPsioUclDIOXiouLY8zWY7oBfrDoobVSomRrIcLQ6z47tM9sJaYbQJf6P5utwzQIMX7NkjkjzFRhqgGKCmZvIkJxxgwIQK833jZTh6kGEJrxuJny20NyN8G3puvcPzC8RxTQr3jJdNO2S0zbDf3hozOfMzzCapb8tmCzwrQROhOGauga9M+Ey9ck56/IkGW66y3bgPvU9bIZpnmANLRnzJLtD0LAqP4aqwus5OV6yQfQNVg6TSchNvRdF0OSq6ibt8GU+XndEw+mueu0H5oh2x8yUgRLpuqMH6Jj8+NzNqsgO03wl7MGRgiOIARi0qAcd2nZmdLwe+sLUzzghtMSkZ3FBAfMn6izcp6FPmntP0pWqmD+xNDHm9DF90Nu3A5MiQFCag95X4OYA10TjBskeGi0/xHfFkblaJz/SnL4pBGCVpmKd8bwhNC4TSifgoq+PStb1PO0arlNGJgp+LuHLIy4V8MSQu/7Z2qcLZdU3Qy+7fjBA65/XHb6k+Bbtg3lU5CsFs+rlgnNaeWyGRZSEkOXo2uw9EELibHBt43R5HdC1+wfyg2gC2aolGezwuyxOv+4wMKgPmq6m+CAJdMstzKlQGEgc5R0oAWUG8BA9lIhRwgYmXN7WqkKfXoKFkwKeg6zFk+ZEq+yH0ofq3jJ9H6BnFrrCBkpguVzdAon6yQ4VPTMP0blBP/4rl4OpSc4lGZB9fXac+G0T3DAzDE6I3M0RNQPzPiHNIxFwM9UyVNqACnF+FBe84eaVkYDwhBK94XUGkCIjGDb5PTWmPuARs+kTjrkW0EKwsjBbodaA0B8sDT+/aw7a7dagFIfVRqEVQTgOwE/yc/PUiVLmQc888jMb6qSBXDyXBV/+PAcQsCC6dkMzO4W0fbtoUZ3LwI2qpClzAN0izZTlSyAbbvP4bxZT1V1Pdv2fBnx9u3B0ORUVbKUGcCQKF8ldlpoQtmzKjOAhgw6A2oPC6Zn0y3eSreEGB55sG/E23eAJFWCFGZBIlnlFvTA7G4UPRH6W8Bw27cHYcgQtvL8Q10WJEhQJquTQwpsqmQpM4CU0q5KVmeHynRb5TqgU9w3iwSkVBk71eHO2EtQACHUPWukL2jcJVCXbETdA8x7dW+mbnXOHnUP2H2kOmq6dx6+ETXdTYh64Hx529dMGOogzhbZfbzqWg+btlcy9J7ewTcWHG1d9LfVq6cKITYBPSW8mLFx4zoRgJNF3QMAnvz5JaSM3GRkSMmql8pDaqtpYvP6t3b4HFkvX7NmhhDifWAg0F3Ajy8+/fQmGcBcpdIAITNYWe2h6LXLEYkHUkLRry9zvTr4w1lCiKJ1mz94tGVZ+Zo1M6RhvAv4rIOElMsDMYIyA3j0pEyQoQ0r4PPzbop+cymks5uBwpCSotcucfKiO6h2EqShNcz/l7c+eKFl+Xt7Smdf757yAq3Ib4KQcnn56tU/b88IynP3HxTO2qjD9wOVffwLX5v1iNf5xVO9iXeonR2raz2seqn8tpEfQAxw2yzW+4rf3P55y8J39n48E+Q7Qkr3gMOlFxIrrg5tS4CEVzM2blzhLyaYsnj6SX5+Vk2M64iElI7qtjZAE9598hL0GAbWMI/h1N+Ays/If9k/0e0ZQEh5PabClVW8b59PqtZEPo0jX0jpDNUIpqQee0+edJacOPPTbwztlyURo9qre/W6/1TwseFfwI0voaEadBtYgjwg5KqEayeg8jNoqOE/j6T5rdazext7iIKj67fsvGffuXM+81Vr8r11ha0yo489vrLirK22JtW/OEY7J0xoePHQoQMty03NgtZt2fWEzWIdLKS8HpoECTcvwuWDcHEPVB7z/u6uAo8bMLw/hhtcVd6/VR7z1r18EGrKCSU38JfpABzevu7B28hv6qkQiafG5WU6k1NOtCVXeKdmH5i+DmicO7sXFcz4dyG0b4UsqKHG6xE31L5ebA2P8Dy/fvOHP25dLn/NDC7+6J2SrFcOVzqGT/bXtskIAw6XnkisuDrET5UrrQsitg7YsHXXMhBDQ/cGc9GU6fzrW22QL3kXpCPvwsq8HrXHDviTAY1GuH9SpjMltbUn1EkpV7auH5UdzGcXz/4thlwKzUHYY0+g4t5pXIrPoaJG48yk9aTXt+nNQeGSdSg5pUX0jDVIu3GK1LN70VzeCwKNQdhvpgMtyW857QhZkvVKSVue4K3hE5jdUsqFmS+++F+t60XlHE/p8TN/eGD40B26YSy5GtfLyuzvUmqfyP86bThrPDTUNzB9UAw5sgyM+vCUWeMo0fN5oyyVqhoPFz1JXOk3lb7jH4BrX5Fqra84S0LaK5u3XW7d1D/5AIi+zvf7XI0dU1JrTfP/wrkxMMddryyz19Z8L3PjxtvIhyjuBZ1etbknUh4VgvEAsdf2U1XRPDvtcQ5hZvZ4RPk+MBpCU6JZkWkT2HNukE9xbLcExMS5MHEhZVAmhJjCli0ftKzTDvlNNUTehZV5JX1+VVppHzbJfw0Rc3rMhGfzp+ftaLOLwT5TuHj44M2x+QdqPwb5Ho3kAyT08D04dfBqMkJ3QMpYQpspBaSMROh2Dl7xXY4k9vA51JAnpXw/v7R2/7z9N0dCIOQ3QYq88ysmthET3IYQhe2RDxE0QOFHMj6/tOYlzdAOtSS+Cd3TfdPnskuN6aMjBVJGEJwRBCSPAEdaoyzf1W9rXQBIJgtNO/zKe7/YGhj5txoKP4HZZQix8JGpE/xOOy0REQPMO+Aa7rbUfYoU/0AbcSclIw2txTWYqqpaPrje+H2nuExIHQ0igJClWSBlNMRnArD92mBuOGub/6xrJPfu6bfpiOrdlscvrVlIwOQ3wccILkOIgkDIhwgYYF5JTaEQxifAoPbq6RYLPXr5jsxXv2yRSsemQ3oexLRzOtyaCL3yIC79VtHr533T8R7pqeiW20PfqOpdPHe+kBhZ114324EUeRdWjk2v3jsnUPLBZAPMK61bIRBvAgHtI2QMvMfn910nNao8LQajNQHSJ3tHuC3ZO9o1C9iTvR7Se7LP3pHTY2f3aV+vyRxw+/2KEdW7KTq/OAzyAXAj5aJx89buDaaRaWno/JK674L8FUEYOT4pgS+OncIwvHN2Q72HqoS+fDP5dItaAmISID4LuvX3/sRneY3TKk48dWYWfzzbfK9at1gY+eB4NL35sUdU7w5z5APgRrJQfI+AR34TTPGA/NK6ORL5y2DbWaxWMgdk+5T9x9F4vm4I/kOLFfVx/O6o7wnCrMH9sMQ036+INvlgggHm7q/rj5SbCXGNMWBsLrq1uenN6joWHpkbtJwFRx6m5mYzsbrVwoAxzR896Qzkg+prqlJquiZfB0LexLfHx9LvvoE+ZQdO1LL8VOBG+M7JuRwsq/Epu3f4IOxx3lDUWcgHxQb4n4O1q4G8cOUMGJNLYrLvCfDfHNKY+5cCqj1tn4ut9tiYc6SA1w/5PlZichL9xw4DOhf5oHAzrvBD2c1td30BsrsKedXXnZS8tYN6t+/728REB/OH1LI0/SQjY/8GwJ9vZvD7S4N454SDGzdqfepbbVYmF84hLilBCfkNWLlmTV/c8/Hzb4UspAWU7QW5bHX/JEAJ+QDxSYmMnjWJw/+9H8PTnMk4nbW88Qm8wUC8p0Bawpd83WJh9MzJ6sgXMWzIepM/J84ZGGBm3SGUeMCMnTLOEVtXDmrv0AJ8XX6FP+04gKsmOOLscQ5Gz8wjuXdPpeT/KWEOIK8bDkfG9jGipsOGHUBJDHDE1eVjAvkAyb17MuWxh+k7tD9C67i7mqaRPaw/Ux6baxL5ACJJr6sNPjXzAzVTkCEXm/lxB5vDxn1TxzFwbC4XTp2jsvwrnFev4XZ540OMLYbE1O4kZ/Qic0C20mzndvK9kFJ7FAg7DoTNWuFHMt5tqasAddd2VMBM8htRF9NgT90yVYR1ujjsKahBrxvNXUr+C1m/b4t8ALvbWjcyZAWNCNsAHiFHhytDJVSS/2lC+5f/pWz/zFMgCNsAQkEnVCGS5AMIwh984Qdhwb1hy1CAHlxmWdWPwiLfLexs6LOZI/EBfvZOwdcBVKShyhZf4SBXHiAtvZwLSf7OQ3WMBhHDT7N+Gzj5ACL8G/MqDKDs2n44GCZLicVJcvrVoI0QzLTTCmEPvrvGALmiBCBoI4RBPigwwF1xt1d+5MhEMy74FAqcnHdfoFq2eWQccAMFYgXbTe1gO+gUd8TChvDz/R5JIn1isogXx9toFXXy4S75xFi3zKGvDk53Ztqtt31X20aSbqfWOIOblmdROgX5cJcYwJY2YtPO4+na1EGXiY3p0Aidhny4C6agl9cOH/eV0245VxHPqt/dz9c3/fzrr6bpKFYcpRORD3eBAa65rLf+UVAbRjiD5DWkXEk/x5zORD50gpvy4eKK0+4TgF31uufNP/b765PTTm7CYJeYWneu+a/BXU+NBO74NHTZsinXEh31FWmJrr2Jse5/e6r4mNJ/sGA2/g8PwEKhAGhM8wAAAABJRU5ErkJggg==;" parent="1" vertex="1">
          <mxGeometry x="1080" y="289.5" width="50" height="50" as="geometry" />
        </mxCell>
        <mxCell id="RAJVKOpdcDavsLiYcgov-46" value="" style="shape=image;verticalLabelPosition=bottom;labelBackgroundColor=#ffffff;verticalAlign=top;aspect=fixed;imageAspect=0;image=data:image/png,iVBORw0KGgoAAAANSUhEUgAAAGAAAABgCAYAAADimHc4AAAABmJLR0QA/wD/AP+gvaeTAAACbElEQVR4nO3dvWoUURjG8efMrEhM1kvQFBZBCZbWfqQwhUiKvQCzuNgGb0OUoBgkIbcQLBSSaJ9CsMgmjUWIVdqozezOvBaKlVu8Z3Z93DnPrwy8s4f57xwGMswCIiIiIiIiIiKSilD3ANsLO4uVoWuGuwiYBzBbf1n/tR8wnCDYPjLb7B6vHNY5WHSA9WvvLl7KB88B6wHI6ixiipUhYKOdF2udfqeIOUBUgF8nv3gP4HbMfNME2Md2a3A/JkLUN3cmL15AJ/8PQ7hzPrjwLGbWfQVsL+wslobPSHfbGaWs8uzm46MHfc+Q+yRWhm7MXALyrKpWvUPuE2kB97wzyTAseUf832TDFfdMOq56B2K2krmImVS0vQPay8kUgEwByFrsBXgtvb7117/vPTn4xysZD10BZApApgBkCkCmAGQKQKYAZApApgBkCkCmAGQKQKYAZApApgBkCkCmAGQKQKYAZApApgBkE38qYtRTDNPyOZN+2kJXAJkCkCkAmQKQKQDZxO+Cxn0XoWdDZawUgEwByBSATAHIFIBMAcgUgEwByBSATAHIFIBMAcgUgEwByBSATAHIFIBMAcim7n1B0/q/31F0BZApAJkCkMUE+Db2VTTHuXfAHyDgq3smHafegYhXF9ueeyYVwXa9I/4AmW0CKN1zzVdmw7DlHXIH6B6vHIaADe9c0wXg1aMvD4+8c1F3Qe28WAPwIWa2iSxgfzh39jRmNipAp98pLreKZZi9RNrbURmA9Wr2bLn3qTeIOUDtn7F6c/3tjayqVn//eME8mv96++8AThBsNxuGrZhtR0RERERERERE0vQTzuN8H9a4OsEAAAAASUVORK5CYII=;" parent="1" vertex="1">
          <mxGeometry x="960" y="600" width="32" height="32" as="geometry" />
        </mxCell>
        <mxCell id="RAJVKOpdcDavsLiYcgov-119" style="edgeStyle=orthogonalEdgeStyle;rounded=0;orthogonalLoop=1;jettySize=auto;html=1;exitX=0;exitY=0.5;exitDx=0;exitDy=0;entryX=0;entryY=0.5;entryDx=0;entryDy=0;" parent="1" source="RAJVKOpdcDavsLiYcgov-48" target="RAJVKOpdcDavsLiYcgov-53" edge="1">
          <mxGeometry relative="1" as="geometry">
            <Array as="points">
              <mxPoint x="380" y="529" />
              <mxPoint x="380" y="790" />
            </Array>
          </mxGeometry>
        </mxCell>
        <mxCell id="RAJVKOpdcDavsLiYcgov-120" value="Avaliar previsão" style="edgeLabel;html=1;align=center;verticalAlign=middle;resizable=0;points=[];" parent="RAJVKOpdcDavsLiYcgov-119" vertex="1" connectable="0">
          <mxGeometry x="0.8325" y="3" relative="1" as="geometry">
            <mxPoint x="-11" y="-17" as="offset" />
          </mxGeometry>
        </mxCell>
        <mxCell id="RAJVKOpdcDavsLiYcgov-48" value="Previsão de humor/ &#xa;comportamental/ fisico&#xa;+ tarefas (facil/dificil/indiferente)" style="shape=image;verticalLabelPosition=bottom;labelBackgroundColor=#ffffff;verticalAlign=top;aspect=fixed;imageAspect=0;image=data:image/png,iVBORw0KGgoAAAANSUhEUgAAAGAAAABgCAYAAADimHc4AAAABmJLR0QA/wD/AP+gvaeTAAACyElEQVR4nO3dsWtTURzF8XNfSgdtogUxTupsxUWl4CAIJlJC6ZTu1jq4OEjBP0KKdHCRVlczSdHQmgputQ4JCEHX4lKwltBEHcxLrkMpiE0Kpbm/k+r5jEnpeX1fXpIueYCIiIiIiPxvnPXg1VvjIxHcNOAyAM4DOG59DH/5AWDdOZS8w/yHpcVPluNmAUby+cFkvTnr4e8BSFjtHlALHk/irfRMufy0aTFoEmAknx8cqv8qArhpsXd4biX+djpnESEKPQAAyXpzFkfm5AOAzwyc+vrIYin4FbDzmh99RP++7HQTu1Z0ae3ty88hR4JfARESd3H0Tj4ADLQTfjr4SOgBwGc6PXrx8jXkJm8jmRoOfwj7aNRrKBaeoVp5v+e5CD4bet/iPeBspwf74eQDQDI1jNzkVMfnPHAu9L5FgKFOD/bDyd+VPNH1WJKht00+BUl3CkCmAGQKQKYAZApApgBkCkCmAGQKQKYAZApApgBkCkCmAGQKQKYAZApApgBkCkCmAGQKQKYAZApApgBkCkCmAGQKQKYAZApApgBkCkCmAGQKQKYAZApApgBkCkCmAGQKQKYAZApApgBkCkCmAGQKQKYAZApApgBkCkCmAGQKQKYAZApApgBkCkCmAGS0AI16jTW9R2Obdyy0AMXCc+ofvquxXcPrwgJt3+Db0zurVlZRrayy5vuG3gPIFIBMAcgs3gMa6MH38N8YGz/Qz79benXYSQCo9+KX7MfiCvhisBGEMzj24AGcQyn0RijeYTn0RvAA3mEeQCv0TgBx1G4H/wfB5E56o9mJOTjct9jqFefweG158UHoHZNPQfFWegZwKxZbPeFQam6mH1pMmdxgbWOj3D5z8vqL6NjPFIAr6N+Pv7FzmIs301P/1M08/zQ6NnHBt92dCD7rd25n2/E2V4a+O2Ddw79xrcRC6FsXioiIiIiI/AZRsIuCVhjmigAAAABJRU5ErkJggg==;" parent="1" vertex="1">
          <mxGeometry x="452" y="500" width="58" height="58" as="geometry" />
        </mxCell>
        <mxCell id="RAJVKOpdcDavsLiYcgov-118" style="edgeStyle=orthogonalEdgeStyle;rounded=0;orthogonalLoop=1;jettySize=auto;html=1;exitX=0;exitY=0.75;exitDx=0;exitDy=0;entryX=0.5;entryY=0;entryDx=0;entryDy=0;" parent="1" source="RAJVKOpdcDavsLiYcgov-49" target="RAJVKOpdcDavsLiYcgov-53" edge="1">
          <mxGeometry relative="1" as="geometry" />
        </mxCell>
        <mxCell id="RAJVKOpdcDavsLiYcgov-121" value="Avaliar previsão" style="edgeLabel;html=1;align=center;verticalAlign=middle;resizable=0;points=[];" parent="RAJVKOpdcDavsLiYcgov-118" vertex="1" connectable="0">
          <mxGeometry x="-0.0946" relative="1" as="geometry">
            <mxPoint x="22" y="14.5" as="offset" />
          </mxGeometry>
        </mxCell>
        <mxCell id="RAJVKOpdcDavsLiYcgov-49" value="Previsão de humor/ &#xa;comportamental/ fisico&#xa;+ tarefas (facil/dificil/indiferente)" style="shape=image;verticalLabelPosition=bottom;labelBackgroundColor=#ffffff;verticalAlign=top;aspect=fixed;imageAspect=0;image=data:image/png,iVBORw0KGgoAAAANSUhEUgAAAGAAAABgCAYAAADimHc4AAAABmJLR0QA/wD/AP+gvaeTAAACyElEQVR4nO3dsWtTURzF8XNfSgdtogUxTupsxUWl4CAIJlJC6ZTu1jq4OEjBP0KKdHCRVlczSdHQmgputQ4JCEHX4lKwltBEHcxLrkMpiE0Kpbm/k+r5jEnpeX1fXpIueYCIiIiIiPxvnPXg1VvjIxHcNOAyAM4DOG59DH/5AWDdOZS8w/yHpcVPluNmAUby+cFkvTnr4e8BSFjtHlALHk/irfRMufy0aTFoEmAknx8cqv8qArhpsXd4biX+djpnESEKPQAAyXpzFkfm5AOAzwyc+vrIYin4FbDzmh99RP++7HQTu1Z0ae3ty88hR4JfARESd3H0Tj4ADLQTfjr4SOgBwGc6PXrx8jXkJm8jmRoOfwj7aNRrKBaeoVp5v+e5CD4bet/iPeBspwf74eQDQDI1jNzkVMfnPHAu9L5FgKFOD/bDyd+VPNH1WJKht00+BUl3CkCmAGQKQKYAZApApgBkCkCmAGQKQKYAZApApgBkCkCmAGQKQKYAZApApgBkCkCmAGQKQKYAZApApgBkCkCmAGQKQKYAZApApgBkCkCmAGQKQKYAZApApgBkCkCmAGQKQKYAZApApgBkCkCmAGQKQKYAZApApgBkCkCmAGQKQKYAZApApgBkCkCmAGS0AI16jTW9R2Obdyy0AMXCc+ofvquxXcPrwgJt3+Db0zurVlZRrayy5vuG3gPIFIBMAcgs3gMa6MH38N8YGz/Qz79benXYSQCo9+KX7MfiCvhisBGEMzj24AGcQyn0RijeYTn0RvAA3mEeQCv0TgBx1G4H/wfB5E56o9mJOTjct9jqFefweG158UHoHZNPQfFWegZwKxZbPeFQam6mH1pMmdxgbWOj3D5z8vqL6NjPFIAr6N+Pv7FzmIs301P/1M08/zQ6NnHBt92dCD7rd25n2/E2V4a+O2Ddw79xrcRC6FsXioiIiIiI/AZRsIuCVhjmigAAAABJRU5ErkJggg==;" parent="1" vertex="1">
          <mxGeometry x="600" y="632" width="58" height="58" as="geometry" />
        </mxCell>
        <mxCell id="RAJVKOpdcDavsLiYcgov-53" value="" style="shape=image;verticalLabelPosition=bottom;labelBackgroundColor=#ffffff;verticalAlign=top;aspect=fixed;imageAspect=0;image=data:image/png,iVBORw0KGgoAAAANSUhEUgAAAGAAAABgCAYAAADimHc4AAAABmJLR0QA/wD/AP+gvaeTAAAH3ElEQVR4nO2dXWwcVxXHf2fGsa06UZWiqEItNDh24vWm5Mu7G9K0QSURBRUJVZVfkBC8EFQhCF9NaJM0kUDC0AcqHpAiEAJVKqoRQqJShRQporTEXjsmNFnvru2GgNoKNaJJWjsQ7+4cHtYpaWN7P+be2Rlrfi+213PP+fuee+Z+zhhiYmJiYmJiYmJiYmIihGb79mi2b0+rdfihrdUCfHIUVIE/tVpIs0irBTSLZvt2Aa9Uf3AekMzkn1urqDmcVgvwwbH3vnO8w62T4Y9IZoCOJHbi6On3feh498vA1MstktQ00cwAR5+65TPPfaIFSnwTuQzQkb4dOIyxmHbxMpKaygavqnmilwEux1mq4ahzJFgx/olUBuh4YjuejrOsbi8t6amxwET5JFoZ4OlT1Go06j4ZjBgzRCYDNJvcCpUJamtWVNOSKY4HocsvEcqAylHqazCCyPdsqzFFJDJAs/1J8F6l/gajqLdNMlN/s6nLBNHIAPWO0ZhWwYlGXxD6DNCRZD9O5RyNNxbFYYsMFM7Z0GWK8GeAUz5KczoFj9DPjkOdAXq6N4Hrnqf5huIhskVS+fMmdZkk3Bnguofxp9FB9ZApOTYIbQboSKIXRyfxv2lUQTQpqWLRhC7ThDcDxDuCmR07FyS0fUEoM0DHezbgtRUwt2VaQemXTGHKkD1jhDMDvLbDmN2vdhFC2ReELgN0bGM36hQxf2CggicJ2ZmfNmzXFyHMAHkCO6c1XBzvcQt2fRGqDNDx5EfxKtNAuyUXJVQ3Sab4d0v2GyZcGeBVnsRe5QOsAjlo0X7DtCwDdLTvQ6j04tKLshG0B3gEuwEAmAd+BzKDMEWFaUSnJVP4t2W/i2I1AHpqfSddt21AK/3gdCPaDXQDSeDDNn03jHAZuAByAbzqV/EmcW87L9vOXrHn1ic63dPBFecu1Emi0n9TJXcDHzPho+V8MDieM4lqDsrTsnPmHX+m60BzyXaule4Gtxv1kiD9/L+S1xO2viRIbg6Op5OgOVQusMYtSjI3W7v4Emi27zvAZ0B7Qe5e7tog+eLjty/7+1//6GpASmqioK+DTAMvSrrw9GIXLdNy3WeBO0E+QkgqP2LIQt3dRdl7bqmLlgyApHP/olR6EAj1jlKoEcnTpg/Krqk3lrpk2Xu33PfaW1xftQeIxBGPcKFncUt7ZHvxzeWuqtl5yv3nLrOqcx/KqDlxK54JVPbK9plLtS6sa/Qi285ewZ3/NHC65sUx45TdffVO7OoePsrAhat0tO9DONW8thWOyst45U/Jrtzb9RZpaPwuW16dQ7oeBk42LG7l8xIl77ONTswankDJwJlrrC0/DPyh0bIrmD9Snn1IdhffbbRgUzNY6Z25Tpf7KKK/b6b8ykJeZO6/n5ddr/+nqdJ+XGsu2c5c5Tmqq5i+qDXDNY2hGfMLrC0/Kr0z15s14GsNR5K5eS4WBkGe9WMnmsjzOF2P+Kl8MLCIJoNUuJj/EvArv7YixG+Yu/MLMnCm5NeQkb1XGaSiWvgyY5vmQB4zYTO0iP6CgeJXRAqeCXPGlpFFUFLFryH81JTNEHKiWvkYqXwwvI4vgjJQ+AboT0zaDQfyM1KFr5qsfLCwkSKCSrr4TZDvm7bdQp6WdP4xEdS0YWs7WZLOH0EllKfRGkJ0SNKF71ozb8vwDXQ0cRDRH5qyF+iOmHBMUoXj5gzeivW9XMnkhwBrLcgeesR25UNAm+nV/VA9EIQvM+gBSRcD6cOCO83QxnBgvvziOM8H5iooR8zL5sB8+UUJTGtwAZDg/igDrMAAIMngfPnFC0xrnAGL4QV3uwwkAKoIaCIIX4ZIVjXbJ5gMyG5aD6wJxJcJhNWM9N0ThKtgXtwq5lI6sLOfDpuBi/bdBEN07v83CKjPCioAERoB3SCYUVucAUvirYwM0FOfbAP6bPsxjyQWtFvFfgZ0vtELdFj3Y54O1rzZY9uJ/QA4TgRvPwuo/QlZAH1AlJYgPkAAM+IgOmFbAXirusegB6rfW8F647EfAOFeo/aUWUSH8Mq9ki4+I+niM3S0d1f3n9Xs87wBzAXsPqg93dPB5bZZzMy4rwE/p1T6gdz32qItXv+SvAO38nWEb2Fm6aPM2vJqv8cPl8NuAKqvG/6rTzMl4Je06fFaz1u953eiZx0V99uoHMDvCEy9rTZfAGv5FlT2k8IeIsO4br+kC/vrrXwA2T5zSVLFQzjuRuAEUGlahcF1rMWwHICmR0Anwd0hqfyg7MjNNO19IPdPSRf2U6nci8gwNHOwyu4oznYn3GjreQV1HpB0YZ+kc2dNiZBPTOcllR9EvJ3ACw0Wj3IG1CtesuDslXRht81/RyWpqaykC59DdDfwUp3FrAbAWiesueRq5irv1PAxieox0sXf2jh3WQsdS+xFvR+DbF3uMub19mae/6oHexnwrreZJf/XC/9A2M/FwsclUxxuReUDSCp/klRxB6qDwFIv8xM63X5bGuwFYPFJzCVUDnFHeZOkCidk0MfoxBAieJIpDuN0JRH2A7e+16Gi1m5DFgPwvqMdb6NyiPLsPZLJD9mc2DSLDJwpSapwgi63eyEQN0321NpIyGInLJuBOUSHWNW5QTL5oWYf5QwSSebmFwKxYeF4/dVIHam5gY4mDupEz7pW6/CLTvSs09FEqN60GBMTExMTExMTExMTbf4HssNKL0TaQgMAAAAASUVORK5CYII=;" parent="1" vertex="1">
          <mxGeometry x="461" y="770" width="40" height="40" as="geometry" />
        </mxCell>
        <mxCell id="RAJVKOpdcDavsLiYcgov-74" style="edgeStyle=orthogonalEdgeStyle;rounded=0;orthogonalLoop=1;jettySize=auto;html=1;exitX=1;exitY=0.25;exitDx=0;exitDy=0;entryX=0;entryY=0.5;entryDx=0;entryDy=0;" parent="1" source="RAJVKOpdcDavsLiYcgov-55" target="RAJVKOpdcDavsLiYcgov-73" edge="1">
          <mxGeometry relative="1" as="geometry" />
        </mxCell>
        <mxCell id="RAJVKOpdcDavsLiYcgov-75" style="edgeStyle=orthogonalEdgeStyle;rounded=0;orthogonalLoop=1;jettySize=auto;html=1;exitX=1;exitY=0.75;exitDx=0;exitDy=0;entryX=0;entryY=0.5;entryDx=0;entryDy=0;" parent="1" source="RAJVKOpdcDavsLiYcgov-55" target="RAJVKOpdcDavsLiYcgov-72" edge="1">
          <mxGeometry relative="1" as="geometry" />
        </mxCell>
        <mxCell id="RAJVKOpdcDavsLiYcgov-55" value="Usuária&#xa;(novo dispositivo)" style="shape=image;verticalLabelPosition=bottom;labelBackgroundColor=#ffffff;verticalAlign=top;aspect=fixed;imageAspect=0;image=data:image/png,iVBORw0KGgoAAAANSUhEUgAAAGAAAABgCAYAAADimHc4AAAABmJLR0QA/wD/AP+gvaeTAAAOA0lEQVR4nO2da5RU1ZXH//tWdXU9+kFXQz9pAQU7EXw0MQRRo0LUgagLjYkmGWeELE1mQJOIgnHNGuOsZK0ITOKgjq7+QGZCHKMQDKCYiFECAy4XChHtBkTopl/VD7qqq6rr1XXv3fOhG4Smu++5956qhkz9vtHss/euveve89rnFJAjR44cOXLkyJEjR47/b9B4OzAWnZ3Rsjyd6lhRasGoJaAWoDKAfQBKAPiGRGMAQgDFwHoXE30KwmHSlSMuSh8orCzsGb9PMTbnVQI6OtjrUuI3k07zQXQTwLNg30cG8DEY7+oKv5NMe3fU1FBCgrtSGPcEMLMSCiTnsYL7wPq9ABVl2GKEQFtAvLGk3LudiLTM2hubcUtAUxO7i93xpQx6FMC0cXLjOIHXlvR719MMSo2HA1lPQEcHe/Mp8c8AHgFQmW37oxAAY20KnherqiieTcNZTUCwM3Y7M60DMDWbdk3QBuDHpZXeTdkymJUEhAKJqRr4WQJuy4Y9uxCwFUwP+as8LVmwlVlOdsQWE9F6DA4bLyA4AtADpZXeVzNpJWMJ4KOcH/QlVoPwcKZsZAWien/U/XCmOumMJCDSFilNO5yvA5ibCf1Zh7DHmU7fUVxTHJSvWjI9PbEqRVX+CPDlsnWPL3wIOt1aWu1tlalVagJOdqS+QKS9BaBGpt7ziBZdV26ZVO0+IkuhtAScbI1XkxN7AEyRpfO8hNCu6HRtSZXnhAx1igwlkbZIKTl5B/7Wgw8AjGqd9O3h1rBfhjrbTwAf5fxgQWInMtjhRkI9aD70EbpaP0NvoBWJeD+SiX4kYzFo6sBZsrcveRS1dfMy5crnMPb6Y575dkdHTrt+hAoS/44MBF8dSKHxg934aO+f0NVyTLjdnzfWo2bGLHgLMrymR5gX9CVWA/ihPTU26A3E7waw0Y6O4TAzGvftxO5tL6E/bG3UV1s3D7cveVSmW6PCjG9MrPJuttrecgJCgcRUHfgrwMVWdQwnHg3jzd+uQ9OhA7Z15bnc8BWXoLCoBJOnz8L0K76MsskXg0jyyJvQp+h0ldVO2bI3JwPxrQTcbrX9cHq72rDxuZ9a/taLUH7RJbhx8f2omT5Tql5ibPFXeRdbamul0dD6zmtW2o5ET0cLNj7/JOLRsCyVY3LFNV/Dgm89CIfDdhd4GiK+w1/h22a6ndkGQ+v5jZA05IxHw9iw5jFE+07KUCdMzYzLcecDq+Bye2WpbIqrnplmtztNzwPclFgGScHXNQ3b1q/JevABoPXox3j9v34JXddlqZzmdSS+b7aRqQTwUc5n4EdmjYzG/l1voPVYoyx1pjneuB+7t/1WnkLCyqYmdptpYioBoYL49wBUmXJqFGLhEN77Y0aX2oX44J0tCDQflaWusjg//o9mGggngJmVoQ10Kex+43+QSsjffq0oZiz5qo7ZU1lInpnx9qZ6MIvJG6ETPcbMwn2r8DDgZGfyBkVS9UK0rxeH9v1FhqrTFLmB+TN1XD2NoRAwZSKjLaigO2Ici66WYzje8CEumXW1bT8IuKQvkLwewC4ReeEnQIF+n2WvhvHBO1uhaaoUXS4HsGCmjkcWaZhz8WDwT/3923N1uBxiet5/2/Jk9hx0QDhWQglobWUPoNxl3aXP0TQVjft22tZDAOqmMFYs1LDgMh4x0OXFwB2zxUY5HccPo6dD0h486d8ajJkxQgnw5MVvkbXk0Hzor0jEorZ0TC9jLL9Fwzfn6Cg0+Jizp7Jwf3DoA1mvRSryOePzRSSFEkA6CSkT4cj+PZbbnupgl96go9LE1+GO2TrKioyTYMe34TDoJhE5sT6AxJQZwcw41rDPdLtCD3DX1TqW36xjRrn50YpofxAOdiPY1WZa/4gQFoiIGSagszNaNlSlbJvu9mZTQ89THeyKhdrp0Y1VRPuD5sMfWTdyJowrIh2RiUZihgnI06kOkvaO2z77REhOpIO1gkhf0NF0WI4xQBlwuK4yEjKcB7Ci1JKcOQpajzYYyswoZyy8klFRLMmoSSTOigFdqwXw9lgixhMxRq0sf3ramw1llnz17NfEkbYoNu9uBxHhzmurUFtTOGZ7s/LDCQe7kUrEke+xv0qqgAxjZ/gKIuZLbXuCwT3eSMj8SaHX/rcDkbiKcCyN1/Z0SJcfiXBvp6V2w2Fi+wkAKRUynAl2t0tbb8k0oZ6AHEVMhrETGIayuWd4FE52Wqvou/PaKhT78lDsy8Nd11VLlx+Jvh45TwAAw9iJLMZJSUAkaO2gYm1NIR6/V7wbMis/EqGT2UuAyESsQIIjiEX6ZKjJCvFISIoelpQAKcSjF04CkolY1myJJKBfhqH4BfQEJONyEkCA4aqjSALsLV0OEe+PyFCTFVIJKd85QE4CSEoC0gPjcgzXEhJ9lZAA1qUMCVQ1LSSXyamCqG5NlXR4ntgwdoYJYKJPZfgyvIx8NHYdytw1DjsbkkJyrMvZLiUmw5M0AjNhSDmOo6liH+qFt/pxokdOAM6ktVdD/dti/dDcW78pxaYOtp8A0nUpCdAFN+ETAzp+vrkPfXFpFWsIxXT826Yg4gPG76B5C+/BvIX3yDGsOOwnwEW8H4NXvtji776zHHkusaKxrrCGR/47iONd9p+EEz0qVm4IojtsnFCpwQd0V3rAsM7eMAGDlx2R2E7KGFw250bc99hqTKq6SEi+N6rhiZdD2Nko9t4eiXc/SWLlS0F0R4w7VcnBBwMfFU0u6jWSE5sJM79j2yMA/vLJ+O6K1bhy3s1C8okBHb96PYxodwpqSvyVpCZ1RLtSeGZ7GMlsv3aGIEAoZkIJ0BU5CQAAZ54LN9/7T1j09w8Lv5K0lI7+7hQigSQSfWmoSR26xoMvRgZ0jaGmdCT60ogEkujvSUEbEEtYJoIPAASxmAmVJibT3h1eZzIs8zjSZXNuRMWU6dj267XCBVG6ykhFVaSickZJmQo+QOGY6nlXRFLoCRg8dKD/3p5T52L2lSSTzAUfAOFV0YMawsW5OpQNCnipda9GcWDolVR98Rex49V6AMDUtBPXx92YG3dhsupEMqgi6Tf3rXf3OrCltQxtThXveVPY5U2iJW+wM85o8AGQjg3CsqKCzKwEOxNHAVxsySsBwtv/BPeLr6Cy5ewTM/x9oL94ABrE3usOJhSE80H1Z/yRCO1TJ+HgosvxlQdsHe0dEwI+K6nwXEokVksivB9ARDqB11p3bXQcJzpQuOwpTHvi+XOCDwB0glBQ6BI6YkoEFBTmg5qH/Qczqpu6sfD5P6PwB/8KR7OkCrjhMK8RDT5gsuBq6FqC45B0SgaqBk/9K/Cs3wSMtVRRA2AlQQvpiMZSo08LCSgsyIdjggKsZmCMbWh2uZB88B4klt4NWyV3Z9Pm7/dMN3N9gakdsSHFvzTt1ki6QhEUPfAv8NT/buzgA4OB7AYcJQoK/fmgEQJGCqHQPxT8LowZfACggQF4ntuAwmU/BUXlbMAwYY3ZuyNMb0mm2PMCgGaz7c4y2tGNovtXwXnAuFLuNEPnTRxeBUUVbuT7nFAcBMVByC9woKjCDYd36OPsEl85yXvvAIqWrILSbe+AOAPHoglPvbHk2Vh69oKB2EIGbbfSlkIRFN2/Co4T7eYa5gF4kgCjmUgfA08BMDlV0KZUIfrrp6H7rU11CHybv9L3htl2ljbl/ZW+NwnYarqhqqJw+VPmgw8AaQC/YYw5EGIAL5Hp4AODA4GCFb8ArGzGEF6zEnzATlUE00MgmNpp9677DZwNNopfPwXwB4zcCTOA3wM4bH3h1nmgAZ4XXzbbLATN+pU1trr/YGfsNmbaKqLHcfg4ir/zY0CXsOc4g4Bb+PP7d5sI2MGAjMJmh4Lwy89Au3SqoSgGz5x8Y2KV1/K9GbbHX70d8f8QuRu0aMlPzHW640j6mjpEX3jKWJDwq9IK7yN2bNkuzPLHPCvB2DuWjPNA4wUTfGBwZCTwqtzt7/U8bteW7QTQDEqRO7kIjFHP9rg3vmnXTNbJf2WsQR41ONX0YppJYpUGYyClNNHv94dZw9cBnHtrlKoi7933ZZjJKq4de4D0iKU0bcRYJOsWXWm1oRNrvO26rtwK4KzF/bwPG0AJ69uK4wUlknAePGdPvUXXlAUyb1WXWpw7qdp9RHfyXAAHT/3N+eGF8+4fTt6+j8/4FzdCx3WTJrul1EmdQnp19KRJvoBTTd90qmPO2KpjFjhjwrjbMZC+Tva90UCGytOLa4qD/krPDQw8rbRIOu4zDijN7QBjnT/o+dqEKRPkHBoYbiMTSgGAiNSJld7H1dm1P2N/ibwqqyyhl05g9UuzflFa5f2hjNHOaGTlJ0xi6zbVud7a+7pz30E5+wgZRv3KlW2p+dd8veBHdx80lrZHVn/EJ7XqP59w7nz/SaW53ZVNu6JokyvT6euv+rnnmRUC02A5ZP1nrHrXbS/yfXJwfd57+xcr3UFJlxDYQy+fqKlz6zaHr5yztGzZTdJOZ4gwbj/kxk9vKRxoPvKcc9/H9yqtgXF5IrSLqge0q2e97PKVL6O1/5C9g2FnMO4/ZQgAieVrljhOdD7qbPj0ixRLZNQn9nlYrZt5TP3CtGc9P3vwWTMb6JngvEjAKXrXbS/ythx7yNEauMtxrPUypb3TbXv5WiFokyuT+iU1DVp1+eb4lOnPlT686Lw5sHZeJWA4iTWvTuOu7rsdnT3zkEhMd0QSFRTqK6BE0olkykHJFAEAu/MZ7nyNPW5VL53QzwW+AHvcn2llJXtpUtkmz0++3TzOHyVHjhw5cuTIkSNHjhw5TvN/rRRHYDYxbZ4AAAAASUVORK5CYII=;" parent="1" vertex="1">
          <mxGeometry x="100" y="300" width="80" height="80" as="geometry" />
        </mxCell>
        <mxCell id="RAJVKOpdcDavsLiYcgov-88" style="edgeStyle=orthogonalEdgeStyle;rounded=0;orthogonalLoop=1;jettySize=auto;html=1;exitX=1;exitY=0.25;exitDx=0;exitDy=0;entryX=0;entryY=0.5;entryDx=0;entryDy=0;" parent="1" source="RAJVKOpdcDavsLiYcgov-63" target="RAJVKOpdcDavsLiYcgov-83" edge="1">
          <mxGeometry relative="1" as="geometry">
            <Array as="points">
              <mxPoint x="180" y="440" />
              <mxPoint x="634" y="440" />
            </Array>
          </mxGeometry>
        </mxCell>
        <mxCell id="RAJVKOpdcDavsLiYcgov-93" value="Visualizar calendário e dicas" style="edgeLabel;html=1;align=center;verticalAlign=middle;resizable=0;points=[];" parent="RAJVKOpdcDavsLiYcgov-88" vertex="1" connectable="0">
          <mxGeometry x="-0.3741" relative="1" as="geometry">
            <mxPoint x="-2.6" y="-8.39" as="offset" />
          </mxGeometry>
        </mxCell>
        <mxCell id="RAJVKOpdcDavsLiYcgov-63" value="Usuária" style="shape=image;verticalLabelPosition=bottom;labelBackgroundColor=#ffffff;verticalAlign=top;aspect=fixed;imageAspect=0;image=data:image/png,iVBORw0KGgoAAAANSUhEUgAAAGAAAABgCAYAAADimHc4AAAABmJLR0QA/wD/AP+gvaeTAAAOA0lEQVR4nO2da5RU1ZXH//tWdXU9+kFXQz9pAQU7EXw0MQRRo0LUgagLjYkmGWeELE1mQJOIgnHNGuOsZK0ITOKgjq7+QGZCHKMQDKCYiFECAy4XChHtBkTopl/VD7qqq6rr1XXv3fOhG4Smu++5956qhkz9vtHss/euveve89rnFJAjR44cOXLkyJEjR47/b9B4OzAWnZ3Rsjyd6lhRasGoJaAWoDKAfQBKAPiGRGMAQgDFwHoXE30KwmHSlSMuSh8orCzsGb9PMTbnVQI6OtjrUuI3k07zQXQTwLNg30cG8DEY7+oKv5NMe3fU1FBCgrtSGPcEMLMSCiTnsYL7wPq9ABVl2GKEQFtAvLGk3LudiLTM2hubcUtAUxO7i93xpQx6FMC0cXLjOIHXlvR719MMSo2HA1lPQEcHe/Mp8c8AHgFQmW37oxAAY20KnherqiieTcNZTUCwM3Y7M60DMDWbdk3QBuDHpZXeTdkymJUEhAKJqRr4WQJuy4Y9uxCwFUwP+as8LVmwlVlOdsQWE9F6DA4bLyA4AtADpZXeVzNpJWMJ4KOcH/QlVoPwcKZsZAWien/U/XCmOumMJCDSFilNO5yvA5ibCf1Zh7DHmU7fUVxTHJSvWjI9PbEqRVX+CPDlsnWPL3wIOt1aWu1tlalVagJOdqS+QKS9BaBGpt7ziBZdV26ZVO0+IkuhtAScbI1XkxN7AEyRpfO8hNCu6HRtSZXnhAx1igwlkbZIKTl5B/7Wgw8AjGqd9O3h1rBfhjrbTwAf5fxgQWInMtjhRkI9aD70EbpaP0NvoBWJeD+SiX4kYzFo6sBZsrcveRS1dfMy5crnMPb6Y575dkdHTrt+hAoS/44MBF8dSKHxg934aO+f0NVyTLjdnzfWo2bGLHgLMrymR5gX9CVWA/ihPTU26A3E7waw0Y6O4TAzGvftxO5tL6E/bG3UV1s3D7cveVSmW6PCjG9MrPJuttrecgJCgcRUHfgrwMVWdQwnHg3jzd+uQ9OhA7Z15bnc8BWXoLCoBJOnz8L0K76MsskXg0jyyJvQp+h0ldVO2bI3JwPxrQTcbrX9cHq72rDxuZ9a/taLUH7RJbhx8f2omT5Tql5ibPFXeRdbamul0dD6zmtW2o5ET0cLNj7/JOLRsCyVY3LFNV/Dgm89CIfDdhd4GiK+w1/h22a6ndkGQ+v5jZA05IxHw9iw5jFE+07KUCdMzYzLcecDq+Bye2WpbIqrnplmtztNzwPclFgGScHXNQ3b1q/JevABoPXox3j9v34JXddlqZzmdSS+b7aRqQTwUc5n4EdmjYzG/l1voPVYoyx1pjneuB+7t/1WnkLCyqYmdptpYioBoYL49wBUmXJqFGLhEN77Y0aX2oX44J0tCDQflaWusjg//o9mGggngJmVoQ10Kex+43+QSsjffq0oZiz5qo7ZU1lInpnx9qZ6MIvJG6ETPcbMwn2r8DDgZGfyBkVS9UK0rxeH9v1FhqrTFLmB+TN1XD2NoRAwZSKjLaigO2Ici66WYzje8CEumXW1bT8IuKQvkLwewC4ReeEnQIF+n2WvhvHBO1uhaaoUXS4HsGCmjkcWaZhz8WDwT/3923N1uBxiet5/2/Jk9hx0QDhWQglobWUPoNxl3aXP0TQVjft22tZDAOqmMFYs1LDgMh4x0OXFwB2zxUY5HccPo6dD0h486d8ajJkxQgnw5MVvkbXk0Hzor0jEorZ0TC9jLL9Fwzfn6Cg0+Jizp7Jwf3DoA1mvRSryOePzRSSFEkA6CSkT4cj+PZbbnupgl96go9LE1+GO2TrKioyTYMe34TDoJhE5sT6AxJQZwcw41rDPdLtCD3DX1TqW36xjRrn50YpofxAOdiPY1WZa/4gQFoiIGSagszNaNlSlbJvu9mZTQ89THeyKhdrp0Y1VRPuD5sMfWTdyJowrIh2RiUZihgnI06kOkvaO2z77REhOpIO1gkhf0NF0WI4xQBlwuK4yEjKcB7Ci1JKcOQpajzYYyswoZyy8klFRLMmoSSTOigFdqwXw9lgixhMxRq0sf3ramw1llnz17NfEkbYoNu9uBxHhzmurUFtTOGZ7s/LDCQe7kUrEke+xv0qqgAxjZ/gKIuZLbXuCwT3eSMj8SaHX/rcDkbiKcCyN1/Z0SJcfiXBvp6V2w2Fi+wkAKRUynAl2t0tbb8k0oZ6AHEVMhrETGIayuWd4FE52Wqvou/PaKhT78lDsy8Nd11VLlx+Jvh45TwAAw9iJLMZJSUAkaO2gYm1NIR6/V7wbMis/EqGT2UuAyESsQIIjiEX6ZKjJCvFISIoelpQAKcSjF04CkolY1myJJKBfhqH4BfQEJONyEkCA4aqjSALsLV0OEe+PyFCTFVIJKd85QE4CSEoC0gPjcgzXEhJ9lZAA1qUMCVQ1LSSXyamCqG5NlXR4ntgwdoYJYKJPZfgyvIx8NHYdytw1DjsbkkJyrMvZLiUmw5M0AjNhSDmOo6liH+qFt/pxokdOAM6ktVdD/dti/dDcW78pxaYOtp8A0nUpCdAFN+ETAzp+vrkPfXFpFWsIxXT826Yg4gPG76B5C+/BvIX3yDGsOOwnwEW8H4NXvtji776zHHkusaKxrrCGR/47iONd9p+EEz0qVm4IojtsnFCpwQd0V3rAsM7eMAGDlx2R2E7KGFw250bc99hqTKq6SEi+N6rhiZdD2Nko9t4eiXc/SWLlS0F0R4w7VcnBBwMfFU0u6jWSE5sJM79j2yMA/vLJ+O6K1bhy3s1C8okBHb96PYxodwpqSvyVpCZ1RLtSeGZ7GMlsv3aGIEAoZkIJ0BU5CQAAZ54LN9/7T1j09w8Lv5K0lI7+7hQigSQSfWmoSR26xoMvRgZ0jaGmdCT60ogEkujvSUEbEEtYJoIPAASxmAmVJibT3h1eZzIs8zjSZXNuRMWU6dj267XCBVG6ykhFVaSickZJmQo+QOGY6nlXRFLoCRg8dKD/3p5T52L2lSSTzAUfAOFV0YMawsW5OpQNCnipda9GcWDolVR98Rex49V6AMDUtBPXx92YG3dhsupEMqgi6Tf3rXf3OrCltQxtThXveVPY5U2iJW+wM85o8AGQjg3CsqKCzKwEOxNHAVxsySsBwtv/BPeLr6Cy5ewTM/x9oL94ABrE3usOJhSE80H1Z/yRCO1TJ+HgosvxlQdsHe0dEwI+K6nwXEokVksivB9ARDqB11p3bXQcJzpQuOwpTHvi+XOCDwB0glBQ6BI6YkoEFBTmg5qH/Qczqpu6sfD5P6PwB/8KR7OkCrjhMK8RDT5gsuBq6FqC45B0SgaqBk/9K/Cs3wSMtVRRA2AlQQvpiMZSo08LCSgsyIdjggKsZmCMbWh2uZB88B4klt4NWyV3Z9Pm7/dMN3N9gakdsSHFvzTt1ki6QhEUPfAv8NT/buzgA4OB7AYcJQoK/fmgEQJGCqHQPxT8LowZfACggQF4ntuAwmU/BUXlbMAwYY3ZuyNMb0mm2PMCgGaz7c4y2tGNovtXwXnAuFLuNEPnTRxeBUUVbuT7nFAcBMVByC9woKjCDYd36OPsEl85yXvvAIqWrILSbe+AOAPHoglPvbHk2Vh69oKB2EIGbbfSlkIRFN2/Co4T7eYa5gF4kgCjmUgfA08BMDlV0KZUIfrrp6H7rU11CHybv9L3htl2ljbl/ZW+NwnYarqhqqJw+VPmgw8AaQC/YYw5EGIAL5Hp4AODA4GCFb8ArGzGEF6zEnzATlUE00MgmNpp9677DZwNNopfPwXwB4zcCTOA3wM4bH3h1nmgAZ4XXzbbLATN+pU1trr/YGfsNmbaKqLHcfg4ir/zY0CXsOc4g4Bb+PP7d5sI2MGAjMJmh4Lwy89Au3SqoSgGz5x8Y2KV1/K9GbbHX70d8f8QuRu0aMlPzHW640j6mjpEX3jKWJDwq9IK7yN2bNkuzPLHPCvB2DuWjPNA4wUTfGBwZCTwqtzt7/U8bteW7QTQDEqRO7kIjFHP9rg3vmnXTNbJf2WsQR41ONX0YppJYpUGYyClNNHv94dZw9cBnHtrlKoi7933ZZjJKq4de4D0iKU0bcRYJOsWXWm1oRNrvO26rtwK4KzF/bwPG0AJ69uK4wUlknAePGdPvUXXlAUyb1WXWpw7qdp9RHfyXAAHT/3N+eGF8+4fTt6+j8/4FzdCx3WTJrul1EmdQnp19KRJvoBTTd90qmPO2KpjFjhjwrjbMZC+Tva90UCGytOLa4qD/krPDQw8rbRIOu4zDijN7QBjnT/o+dqEKRPkHBoYbiMTSgGAiNSJld7H1dm1P2N/ibwqqyyhl05g9UuzflFa5f2hjNHOaGTlJ0xi6zbVud7a+7pz30E5+wgZRv3KlW2p+dd8veBHdx80lrZHVn/EJ7XqP59w7nz/SaW53ZVNu6JokyvT6euv+rnnmRUC02A5ZP1nrHrXbS/yfXJwfd57+xcr3UFJlxDYQy+fqKlz6zaHr5yztGzZTdJOZ4gwbj/kxk9vKRxoPvKcc9/H9yqtgXF5IrSLqge0q2e97PKVL6O1/5C9g2FnMO4/ZQgAieVrljhOdD7qbPj0ixRLZNQn9nlYrZt5TP3CtGc9P3vwWTMb6JngvEjAKXrXbS/ythx7yNEauMtxrPUypb3TbXv5WiFokyuT+iU1DVp1+eb4lOnPlT686Lw5sHZeJWA4iTWvTuOu7rsdnT3zkEhMd0QSFRTqK6BE0olkykHJFAEAu/MZ7nyNPW5VL53QzwW+AHvcn2llJXtpUtkmz0++3TzOHyVHjhw5cuTIkSNHjhw5TvN/rRRHYDYxbZ4AAAAASUVORK5CYII=;" parent="1" vertex="1">
          <mxGeometry x="100" y="434" width="80" height="80" as="geometry" />
        </mxCell>
        <mxCell id="RAJVKOpdcDavsLiYcgov-71" value="Baixar app" style="edgeLabel;html=1;align=center;verticalAlign=middle;resizable=0;points=[];" parent="1" vertex="1" connectable="0">
          <mxGeometry x="210" y="340" as="geometry" />
        </mxCell>
        <mxCell id="RAJVKOpdcDavsLiYcgov-81" style="edgeStyle=orthogonalEdgeStyle;rounded=0;orthogonalLoop=1;jettySize=auto;html=1;exitX=1;exitY=0.5;exitDx=0;exitDy=0;entryX=0;entryY=0.5;entryDx=0;entryDy=0;" parent="1" source="RAJVKOpdcDavsLiYcgov-72" target="RAJVKOpdcDavsLiYcgov-79" edge="1">
          <mxGeometry relative="1" as="geometry" />
        </mxCell>
        <mxCell id="RAJVKOpdcDavsLiYcgov-72" value="" style="shape=image;verticalLabelPosition=bottom;labelBackgroundColor=#ffffff;verticalAlign=top;aspect=fixed;imageAspect=0;image=data:image/png,iVBORw0KGgoAAAANSUhEUgAAAGAAAABgCAYAAADimHc4AAAABmJLR0QA/wD/AP+gvaeTAAAJ9UlEQVR4nO2cf3CT9R3H35+HpJRCyw/FbaJCOaTUpilM6Jg6CEPZbjpP3dwfeugfOne73SzMpnWnp3WioJwT2Lmp551He+xUFD1ARRGatPJLVksT0rRNUlqRpj+UlvVX2iTPZ3+EYmUtTfJ8nyc/yOvPJN/P95P3q/nxfPrkAVKkSJEiRYoUKVKkSHG5QdEuvOPj9+5eMLV33Z+ur79CYnm3NBR4MTt7S4/I5i4HpGgXEvPLnr5pK15x5QZlif4YSNd7PO3mIuZ7J4lsMNmJWgCA6wDA05dpfKUp9zRAxIwtnvZ5dldb6S8E9Zf0KBFw4e3L05eV/4/G3A4GdQPIJZL3ubzmPU0dj89X3mJyo0TA9zg1kLlolAQQcIckB53utpKtDV0lmaL2STaECQBCErY15XYwcPb8TWkgflQX4AZ3W8kjzGVC90sGhAfS0p+5aFvTDZ2jJADA1SB+zdPef8zdUXqT6D0TGVX+Ilv6MxdtazR0XSQBAJZClj/3eM3veNpKr1Nj70RDtbeEloGpOdsaDV0y/58EYuBekFzv8paUnTpVlq5WD4mAqu/JLQNTc7a58r4ZQwIYmErgp4Pp/U1ur/kBNfuIZ1T/UGztn7ZwPAnnuRbAdrfXfLC5o9iodj/xhibfSlr7py38e0N+D4M6L/GwVbJMtW5vcbm7vfgqLfqKBzT7WnjGlzH/JaehjyF1XLofWgtQo8dbUupwlKVp1V+s0PR7eUhCXv8EEgDGDAZvmjxrwO7xFt+uUXsxQfMDozO+jPmbnYaBCSUAAHghg/a628z7Xd7HblC/O+2JyZGp1zcle7PTMMBMYUgAQLiVIJ1wt5Vs9Zwtna5ye5oSs9GA1zcle3NDfvgSAD2IH+UhOanG3jGdzYQk5A0yqD2CZVeExt7Zx5vaHluhWnMaEfPhmNc3dd6LDUZfhBIA8BKJJKvLa95zyvv4PFWa04CYCwCA9sH0eS86DUORSwiNvYMIOlzekrK2trIMNfpTk7gQAADtvoy5G+uNgSDT11EszyDw0wNSaKzBHP3/urUmbgQAQNdQ+jUvOI2IUgLAmANgu6fdfMzVUfxTsd2pQ1wJAEISNjmNJDOdVlBmGcl0yO0tLj/Vaf6hsOZUIO4EAMA3Q+lzNjqNkkIJBNBaOQh3PI+941IAEJLwfH3BpKAMJRJGjb377C6v+V5R/YkibgUAwLfDk6/e6FysWEIIWkDAO26v+YCnvTRfeT0xxLUA4DsJskxfCSr5c2b5S3e7+TWX96+zBdWMmrgXAIQkPOcs0AmUoAPjEUKg0dNuLqrkMp2guhGTEAIA4Ozw5KufdxboZBYmAQBmMmPLte39tV3235oE1g2bhBEAhF4JGxwF+iCjVWTdzO7WvhnfNn7qt+TvH7IackXWnoiEEgAA3f7JP3rWsWRKgKlZRL3M7tajszqdNwLQA7hVYqrzW4xb+eiCLBH1JyLhBADAOX/aVRsci6cFWPIoqZPV03pkVqdzKULhj6AH+NGAL90zbDUW8Tvqjr0TUgBwQUJWtBKyelqPzOxwLgMwzgcwXUnMWwJXNXzhtxh/pqDVS5KwAgDgnF8/e4NjcZZfltyRrMvqnij87/FjgKv8FuOewcrF86Jq9BIktAAgJOG5+sXTw5WQ1d16ZGZn2OGPgu/QUdDhr8zfxJV506JodUwSXgAQkvBsfcGM4eClJWR1t0QZ/gUyQCgNkNQQsBqFjL2TQgAA9PrTrtzgHF9CVnfL4ZmdDUrCH80cZt4esBqODlcalysplDQCgFESZHKNvv18+IUQE/4oqJCIDw1bjOVcmRfV2DupBADnJTiWzBqRMONs89GZnQ3LITz8C0gEXhsgyRmw5v8q4sVqdBRregP6KzY4lsyacrpl3/SupkJo8zxnMOMt5sj2SkoBAFC477Dzv+ubCnmYFB2sRYiDCHIkC5JSwOrPrJ+vPlB1U6APs5r/Js2Wh6lJ/V1pl86f9stIVyWdgNv2W6pXH6i6Ceefm7+XZzQ/RT+QfahXactGItyuN9l+Q7fVnIt0cVIJuG2/pXrVweqbcdHzCgxienOZNEewhG4QHtfNlo26lfaPoi2SNALWfDp2+COMSGAfHAq3ChDwuk7S5ehX2l+gPMewkmJJIWDNp5ZqU+X44Y8QGMR0T5l0jQIJB2WJb9SZ7H+gFbVdUdb4HgkvINzwRwgMYrr7aelaOQIJBLgJ+J3eZF89ecVJW9TNjkFCC1iz72C1qbL6FkT4PII+ZHnCk9APpmcmcW++zmTfGX2n45OwAtZ8fKDaZD10C6K85tEoCSfHuJsZVKFjeYF+la2MVrX4lHU7PgkpYM3HB6pNVYejDn+EoA9Z7jKae5GE4wBuTjPZHqBVjojP1o6UhBPw6z2fHBIR/gjyIGW6y2huoJcqCXSfbqX9J3qT/YiI2uEQs/NhouHO3fusy48cXym47CAP0j9bi33PLWps7BVce0ISRsCdH3xkXX6sRnT4ewNEf15y4kSL4LphkxAC7vrgI2uhwPAZqIUsrzPa7VWiakZL3H8G3PX+h+LCZ/4WzOsaFi5cFg/hA3H+Crjr/Q+thV98KSJ8P4B/Den1Ty2tqTkHm9BjKUXErYC7d+21Ljteqzx85s+kSZOK8mpr1ZqGKiIuBdyza691qcLwCWhior/k19V9KKovNYg7Affs2m1derxOSfg9DGySAoGXDQ5lk0otiCsBCsOXAeyQmYsLbLZLXZcorogbAfe8u9u6tCbq8CtJktYbamvrhDalAXEhQEH4p4n5SYPNVi68KY2IuYD7/v2exWCvN0W4bABEm6f19GzKblFvUqkFMRVw/453LXknnaYIljAB75JOV5xXUyPyp0oxI2YCIg6f+T+QpCLDiROH1etKe2IiYO2OnZbckw2mcB7LQBuInsmvq3uDENlJT4mA5gLur9hpya0PK/xhAK+m+XxPxmJMrBWaClhb/rYl19lkCuOhe1mWi4x2u5Af4sUzmgkIK3xmJxGtN9TVfaJNV7FHk3H0AxUThn8WzOucOTn5l1P4gAavgAfL37bkjB++n4A39TrdEzk1Nd/E05hYK1QV8OD2tyw5DS7TmHcyfyYD6wtstrFOC7lsUEUAMfNDb1RUzW9uNY1xt4uJnjDW1alyolOiIVwAMfPDb+yoym5uvXi20weil9L7+jZe73YPid43UREqIBR+xcXhywB2IBg05588Ge5Vci8bhAkgZn749Yrq7Jbvwmfg2CTmojyb7ZiofZINIQJGhT9yKeGvifkJg81WQQCL2CNZUXwcQMz8yOvlI+EPgOiZ3oyMhQabrTwV/sQoeQX0E3PG7199s2ruV2dWELBTkiTzDbW1Qi+mlOxELYCZNj305o6b5311hkB0S7KNiVOkSJEiRYoUKVKkSJFCLf4HtGNbrNDAX48AAAAASUVORK5CYII=;" parent="1" vertex="1">
          <mxGeometry x="316" y="345.5" width="40" height="40" as="geometry" />
        </mxCell>
        <mxCell id="RAJVKOpdcDavsLiYcgov-80" style="edgeStyle=orthogonalEdgeStyle;rounded=0;orthogonalLoop=1;jettySize=auto;html=1;exitX=1;exitY=0.5;exitDx=0;exitDy=0;entryX=0;entryY=0.25;entryDx=0;entryDy=0;" parent="1" source="RAJVKOpdcDavsLiYcgov-73" target="RAJVKOpdcDavsLiYcgov-79" edge="1">
          <mxGeometry relative="1" as="geometry" />
        </mxCell>
        <mxCell id="RAJVKOpdcDavsLiYcgov-82" value="Entrar" style="edgeLabel;html=1;align=center;verticalAlign=middle;resizable=0;points=[];" parent="RAJVKOpdcDavsLiYcgov-80" vertex="1" connectable="0">
          <mxGeometry x="-0.2702" y="-1" relative="1" as="geometry">
            <mxPoint x="-7" y="-15.5" as="offset" />
          </mxGeometry>
        </mxCell>
        <mxCell id="RAJVKOpdcDavsLiYcgov-73" value="" style="shape=image;verticalLabelPosition=bottom;labelBackgroundColor=#ffffff;verticalAlign=top;aspect=fixed;imageAspect=0;image=data:image/png,iVBORw0KGgoAAAANSUhEUgAAAGAAAABgCAYAAADimHc4AAAABmJLR0QA/wD/AP+gvaeTAAANLUlEQVR4nO2de3gU1RXAf3dmH9nNbngEEJIoQRAREYFWMKBtlVZaPqSWouKr2oqloIZi0a+2tVVbaysWNYI0SkVbbfv5AqNWLRXbItiKLYJGBUPCI4LII2SzyWZfc/vHgjwyYWdnZ2YJ3d/35Z/sveeePWfmnnOfC3ny5MmTJ0+ePHny5Pl/Q+RagaMxcFFLnyRiJMhTBZxK6q8PkkKgB1C4v2gr0ISgFclOBBuRfIgUG9SkXFtXGdyVq++QjmPKASXV0u+Jt3xFCHE+CuchGUb2OkrgXSF4XUq5It4eXN54k4hYoK4l5N4Bt0vl5N4tY6UQVwHTgCKbWwyBfB7J0w29g3/hEpG0ub2jkjMHlC+RBUpb+DtSiLkgB+RIjXohuFeJBx6tqxTRXCjguANKqqXfm2idhZA3Af2cbr8TdgjEve1q4W+3zxBtTjbsqAMGLAxdiFCqQJY72a5hBI1ozGm4PviMc006QPmipnIh3Q+CnOREexZQI1TXjfUzfFvtbsh2B5Q/FLpIIB4llTZ2JUIIrmuYGXzKzkZsc8CgKulNquF7EFTa1YZDPKwmApV2BWlbHFC6IFTsUcSLwNl2yM8Bq+IebXLj9G57rRZsuQNOfLC1xOXSXkFyhtWyc8wHilQnbLrev81KoZY6oLw6NEQkxV+BE62UewyxFeQFDbOKNlgl0DIHlC1qK3XLxCoQ/a2SeSwi4GOpucY13ODbYoU8xQohpQtCxW6ZXH68Gx9AQqlQEn8pW9zc0wp5WTtgUJX07g+4p1mgT5dAwlBXTHlhUJX0ZisrawckXeHfkINsp8AFlw91M3OUh54+56e0BIxNquF7LJBjngELW6YieDpbJTLlSyep3PkFL2XB1PPz4R6Nyc+0kdCc1gSE5Jv11wefM1vf9BtQvqipHMFis/XNMqRY4ZGJvs+Mf+B/V5/hdloVAKTgdwMWREzHPtMOENJdBXQzW98sg3sqqDrvbeXnPRTnoCsCuqMmHjBb2ZQDyh8KXQTyQrONZsPKbUlaYrLD/4MewdwxnhxoBEi+PmBhyJQ9MnZASbX0C7jfTGNW0NQuqXo7pvvZxUPcDO9jSWadOUJ5oGy+9GVaLWNtvcmW63Od7z/2bpyP9naMuIqAn57jzdEynxzgKmidkWmtjByQynvF9zNtxGqSGty5Sn9yctQJKhee4nJYoxQCeUv5ElmQSZ2MHKCp4WuBkoy0sgAB3Pg5D89M8TH7LA9+t2BVY5IVWxK65X94the/OyfvQT/aw1dnUsG4A26XSmoB3XkuG+pmzmgPo05Qmf15D3+7zM8XTlT5xaoYcZ3cv29A8L2RuUlLkdyMlIa9b9gB/XuHv5iL3QvdvYIfHJHd9C0UPDShgF1tkiXr9QPydSM8nFjkfEAWMHDAwvC5Rssb1lCk9u04zpzRHnoUdHygfG5BgQsW/CfOrraOaalXhR9V5CgtVTBsK0MOKJsvfQI5xbxG5vC54K3tST4JdzTw8oYEeyKScEwy79/6b8GEk11UlKp2q6nHJUZTUkMOcHlaLiAHo97FE31MG+rmu69EeODtGNH9e9hiSfjVmweN/uyHcdZ9qr/B7fZzvajO90RFnoLQ+UYKGlJNCGFImJVMHJh6eseVqTw3xU83r2Dy020s3ZjgkXdibG4+GH0lcOcbMTq+J3BKD4XLhzofkKUU5xkpZ+zZUDAkzCoKXHBrxcGpdpcC15zh5vELfbxan+C+NR27nLU7kyzbqJ+WdhZHbEWI8UaKpXXAwEUtffbvUnaMGSM9lAY7GqxvYSrwanqPOnD36ihhnXmi7l7B989yPCAPH1wd6pWuUFoHpPbnOze67xcQfHeEvrH++0mSFz7Sf8oBdkcki9bGdT+7/HQ3Q4odDQZKIqmMSFsovRx5qhXaGOUnY734dGYSNAl3vBHV7ecPZfER8eEAqoDbxmW9gpgR0oDt0jpg/8kUR6goVfnaQP15nD9/EOfdXemXvOIa3P2mflpaUary1ZMdnSfK3gFIBluiShqO9oQ2RyXz39I3qh7LGxL8Y6t+WnrbOP03zCYscAD0tUCRtFw5rPM++oE1MfZG0nU+h3PX6qjuGnG/gODaMx0LyGltZ+BZkEEzMfj8/i5+ek76LxqOwaxX25ndSZby0V6NSAL+foU/o/Zv+2eUJ2rjXKOzVvy9kW6e2RBnzlkexpSkHynPXRHl7R1mTjKJYLoSBhyQXogehW44ycBk2F2ro1w3wk13r76T56+Jcce5Xvr4M3sIbhvn5dJlESYPcnXYtuJ3C24928vv1seYOsSd9vEy32XJtLYz0gUFzDafjromjTU7kkzrZKT6an2C04qVjI0PMKiHwlcGuDqNHZNOcRGOwUt1nae1FmCJA2zjjjei/KjCq7vLoT0Bi9fFmX6m+WmEm0Z7qKlL8P7uw4NB7W6NacsihGOp4K63puAURhwQtqPhlzcl6OkTjO6kD374nRiXnubKamWrj19w7ZlufrYyNX7YF5X8fFWUi5e2May3wmuX+xldovJkrf7gzQJa0hUwEoRbQGS8EXVfVPJeJ3m7JuG+NTEen6Q/Y7sjLFm2McH9Xy7oVIZRKkpUHnknzi0r2lm+OUlFicorl/o/i083j/EwdWmEEX0UXIq+s8PGM+AjEFY4IL0QPVZuS7JyW+cnPueM9tAvoP+F734zyuZmjYuete7E6LMbEjzytQLGlx/+lYt9gqtOdzPlOTsOz8u0tjPSBX1igSaHcVKR0ul8z9s7krYFxvd2679NV5/hZnBPW8JhWtulb1Ww0RJVDuHWCg9ena4/Kfmsv7aDh9fG2K6zuqYqcOlptqwZpD1Jk9YB0oCQTBhbpjKhk/mYP9XG+WCPfSlJJJGasj6UpvZUYP7lalsOQWbvABCWOUBV4Gfn6M/37ItK3YUWq3lpU4J/b08S11Jp7sSn2ujlE6yfHqBmqp/ybtZ1RcKA7dIGYVdc/jfpQmLBmkAvn9BdMAG4760YTe12dT6H8+N/pJ72IcUKS6f46bs/GRjWW+HJyT4mPd1mhS5aVNPWpiuU1t11lcFdCN7LVhuPCqP6qkx9LsLcFe18eshWkg17NP74vm25eAfq92kUumHBBQWfGf8A/QKCW63ZzrLu4xuK9qQrZGxRHlZkq82oE1QWXlDAE5N91O7WGP/HNqrXxoglUyPipMOj0aJO5p4AvjHYTa9szxpIachmhhwgDQo7GuPKUmlPRanKi1P93Hy2h9+ujXPuE638a7vzdya9u0vrdApCVeBL/bNbNBCqap0D4u3B5UBzNgqNLTuYd6oKfGuYmycn+9jrUL9/JKGoPOoUxLDeWQXj5lib/3UjBQ210niTiEgpnjWrTdAjGN778MS/sUVj5qvtjnc9hzLvX9FOlzn7FWbRBQmeMnovnXE3K/IPZvUZU6IetjttS3NqNnJbKIfWJzUuuKImwgs6I29XNi+ANG4rw81s3hn4J1BvRp9xh3Q/m/ZpTHs+ojsizQXhmGT28nYql7fTHD2o0z7z47K6hpnBN4wWzuB8gNCE4F4zGh3o/zfu1bhsWYSdrceG8Q/lxboEV9ZEiOx/GTbqHIEyyDyEMPwFM3rRlHjgUWB7JnVOKBQM6qFQu1vjsucj7M5wcd1JandrPLY+tcf0bw0mJgQFjWoi8HgmVTJyQF2liCLE/EzqjClRWf9pkitrIo6NdLOhpi7By5sSbNqX+RsgYV6mN2tlHOpLqqXfm2ytNXrzYTevIK5BW/zYN342SNiELzBs87dFeyb1Mo7122eINg0xy2j55qg87o0PoKDNztT4qXom2DKr8GWgxkzd4xEhWVo/q9tLZuqavytCdd0I7DNb/ziiSaDONlvZtAPqZ/i2CiGvAtsWsLoCUhPy2mwu8stqwqN+ZtGLSB7MRkZXRgp5/5aZRUuzkZH18o+aDNwiYXW2crogKwuLgz/MVkjWDqirFFFFjU8E1mUrq6sgoTbu0S6qvURkvYaav7YyUwSNQnGNs+pib8tWoBtn+j8GJgC23zieQ7aKpBxv5a3qlh++61/d2k9Jaq8Aw62WnUsEvC+k+lWrry62fDvYlhmFO+Ie7bzjLDCvTJA8x2rjg03b0xund9tb/mngiwLxa7r2OEEiqfL3Cnx566zuTXY0YP8POCwIfV0oYgld8QccYHrDrKCt96LafkBj8w1Fz6O5RtKF5o6EZKki1WF2Gx8c/hGfkxeFJkmpVOXwZ6vSUS/QKs1OrJnB8YvVyuZLn6ugdYaCnCuh1On2dRE0Sk3ci7+w2syUcnZN54hBVdKbcIevQXKzgIE5UqMOmOfvFXjMilGtGXL/U4bAwIdaP6dJ7VsIrgCKbW6uGWSNQPl9/czC1zJZQLeDY8IBByhfIguUSGi8JsR4kbrwaDjZJwoasA7k60JRX9O8/hVOdzNH45hywJEMrg71iktlJJocjGQIcCqCPqTO33bn4BnmMKnFoRZgJ5KNCD4UiA1RTVtrZJdynjx58uTJkydPnjx58jjF/wDMq2M3bgkjxAAAAABJRU5ErkJggg==;" parent="1" vertex="1">
          <mxGeometry x="316" y="294.5" width="40" height="40" as="geometry" />
        </mxCell>
        <mxCell id="RAJVKOpdcDavsLiYcgov-90" style="edgeStyle=orthogonalEdgeStyle;rounded=0;orthogonalLoop=1;jettySize=auto;html=1;exitX=0;exitY=0.75;exitDx=0;exitDy=0;" parent="1" source="RAJVKOpdcDavsLiYcgov-76" target="RAJVKOpdcDavsLiYcgov-83" edge="1">
          <mxGeometry relative="1" as="geometry">
            <Array as="points">
              <mxPoint x="810" y="254" />
              <mxPoint x="810" y="300" />
              <mxPoint x="686" y="300" />
            </Array>
          </mxGeometry>
        </mxCell>
        <mxCell id="RAJVKOpdcDavsLiYcgov-91" value="Visualizar calendário e dicas" style="edgeLabel;html=1;align=center;verticalAlign=middle;resizable=0;points=[];" parent="RAJVKOpdcDavsLiYcgov-90" vertex="1" connectable="0">
          <mxGeometry x="0.2552" y="-1" relative="1" as="geometry">
            <mxPoint x="42.5" y="11" as="offset" />
          </mxGeometry>
        </mxCell>
        <mxCell id="RAJVKOpdcDavsLiYcgov-76" value="Tela com questionário" style="shape=image;verticalLabelPosition=bottom;labelBackgroundColor=#ffffff;verticalAlign=top;aspect=fixed;imageAspect=0;image=data:image/png,iVBORw0KGgoAAAANSUhEUgAAAGAAAABgCAYAAADimHc4AAAABmJLR0QA/wD/AP+gvaeTAAACyElEQVR4nO3dsWtTURzF8XNfSgdtogUxTupsxUWl4CAIJlJC6ZTu1jq4OEjBP0KKdHCRVlczSdHQmgputQ4JCEHX4lKwltBEHcxLrkMpiE0Kpbm/k+r5jEnpeX1fXpIueYCIiIiIiPxvnPXg1VvjIxHcNOAyAM4DOG59DH/5AWDdOZS8w/yHpcVPluNmAUby+cFkvTnr4e8BSFjtHlALHk/irfRMufy0aTFoEmAknx8cqv8qArhpsXd4biX+djpnESEKPQAAyXpzFkfm5AOAzwyc+vrIYin4FbDzmh99RP++7HQTu1Z0ae3ty88hR4JfARESd3H0Tj4ADLQTfjr4SOgBwGc6PXrx8jXkJm8jmRoOfwj7aNRrKBaeoVp5v+e5CD4bet/iPeBspwf74eQDQDI1jNzkVMfnPHAu9L5FgKFOD/bDyd+VPNH1WJKht00+BUl3CkCmAGQKQKYAZApApgBkCkCmAGQKQKYAZApApgBkCkCmAGQKQKYAZApApgBkCkCmAGQKQKYAZApApgBkCkCmAGQKQKYAZApApgBkCkCmAGQKQKYAZApApgBkCkCmAGQKQKYAZApApgBkCkCmAGQKQKYAZApApgBkCkCmAGQKQKYAZApApgBkCkCmAGS0AI16jTW9R2Obdyy0AMXCc+ofvquxXcPrwgJt3+Db0zurVlZRrayy5vuG3gPIFIBMAcgs3gMa6MH38N8YGz/Qz79benXYSQCo9+KX7MfiCvhisBGEMzj24AGcQyn0RijeYTn0RvAA3mEeQCv0TgBx1G4H/wfB5E56o9mJOTjct9jqFefweG158UHoHZNPQfFWegZwKxZbPeFQam6mH1pMmdxgbWOj3D5z8vqL6NjPFIAr6N+Pv7FzmIs301P/1M08/zQ6NnHBt92dCD7rd25n2/E2V4a+O2Ddw79xrcRC6FsXioiIiIiI/AZRsIuCVhjmigAAAABJRU5ErkJggg==;" parent="1" vertex="1">
          <mxGeometry x="860" y="210" width="58" height="58" as="geometry" />
        </mxCell>
        <mxCell id="RAJVKOpdcDavsLiYcgov-89" style="edgeStyle=orthogonalEdgeStyle;rounded=0;orthogonalLoop=1;jettySize=auto;html=1;exitX=1;exitY=0.5;exitDx=0;exitDy=0;entryX=0;entryY=0.25;entryDx=0;entryDy=0;" parent="1" source="RAJVKOpdcDavsLiYcgov-79" target="RAJVKOpdcDavsLiYcgov-83" edge="1">
          <mxGeometry relative="1" as="geometry" />
        </mxCell>
        <mxCell id="RAJVKOpdcDavsLiYcgov-92" value="Visualizar calendário e dicas" style="edgeLabel;html=1;align=center;verticalAlign=middle;resizable=0;points=[];" parent="RAJVKOpdcDavsLiYcgov-89" vertex="1" connectable="0">
          <mxGeometry x="0.1206" relative="1" as="geometry">
            <mxPoint x="18.2" y="-75.2" as="offset" />
          </mxGeometry>
        </mxCell>
        <mxCell id="RAJVKOpdcDavsLiYcgov-79" value="email pessoal" style="shape=image;verticalLabelPosition=bottom;labelBackgroundColor=#ffffff;verticalAlign=top;aspect=fixed;imageAspect=0;image=data:image/png,iVBORw0KGgoAAAANSUhEUgAAAGAAAABgCAYAAADimHc4AAAABmJLR0QA/wD/AP+gvaeTAAAOGElEQVR4nO2dfXBc1XXAf+e9lWVJu7KxsU2MP7RrYTx1P/gIQ4khdUIJDSmUNLXjtngmaUJsSaAAGQieToibphNPPQODjCQrCaGkDgxqSFpoSYBJoCGhMLSQOrjBjeWVvwj+wpZ2ZdnWvnv6x8qJLfTue2/3rWTS/c34H79zzz16592vc8+9C1WqVKlSpUqVKlWqVKlSpcr/J2SyDQhDc4fWak3uvUblIoTfQlmEMBfDbIQpwDlAAcgBR4BBICewD3Qr6FbcKT/buaZu92T+HeNx1jpgQdfRTILEjYpeD/w+MDUGtW8DPxDR7xfUfHd36/QjMegsi7PKAc0dWuu5Qx9H9NPAlVTWvhPAvxqlc1db6rkK1mPlrHDAvHu1rqZuqBXVO4C5k2DCa4L5ws7Waf820RVPrgNUJdM1tEpFNwALJtUWQOA5RVuyrY3bJ7DOyaGp+0iTmMRXEa6ZLBt8OK6qX+xvTW1ERCtd2aQ4INOd/0tV3QwkS1QxAmRBjoAeBY6qYARqUKZTnBU1ATNLtVFVnyrU6uq9n572dqk6wjChDli+XhP9s/MdAi0Rix4DngR+ophXqGv8af8n5XhQoaWdB5LDTL1IhSvAuQr0GqLNpn6OSXw4e0vdroj2hmbCHHDhgwdTJ0/U9oL8UYRiz6vqw7VTTzy+/VOzcnHYMHKy7gZVXQNcFaqQsNcUvPfvunV6ttz6x1c/ATR3HG70ErXPgF4eroS8DObObGvjC5WyaVH34DJP5UsCHwxhT7bgyZV7bm14M247Ku6AORvfaqhvaHgaWBZC/Jeq3N7fmuydiAEQIN2dX43qvcC5dkl5Wesalofp+qLgxKnsHfSqW9/Q8AhhXr7wA2rk4v621GMT9fIBsi3Jf3TUvUSEV+2SerkM5++Pu/6KOiB9KLcBuCFATEX5m+zM5LXZm5P7K2mPH31t9XuOO8mrgCcCRD+T6R784zjrrlgXlO4avAHknwPqUFFu2dmW6qqUHVEohkLyT9rWJgL76nR4yba22fk46qxIC5i/aWguyEMEvHwVbjtbXj7AjnY5cSKRvBHhZ34yCucPUf/XcdVZEQfUuKYTmBEgdk9/S6qjEvWXw5tr5JgxfBxkyE9GRD/b1Jk/L476YnfAwu7BjyrcaJMR9HvZluTfxV13XOxqS/0c9PMWkToRc2ccdcU6Bizt1SnHDuW3Ac2WCvc5BS7e0Z46WE5dzR1aa9zcZUZYJipzEZ2hiAMMCBxBZbvj6Kvz9yffeH69FKLqX75eE7tm518DfttH5KjWJd9T7rQ0Vgc0defaRbFO1Rzh6r6W1A9LrWNR19ClBrMW5M9BG0IUeRv4NuiWqAu7hV1DH3YwT/k9V2VVf1vqsSg6xxKbA0a/mD7sYeXHs62pPytF//xNQ3MTrrcB5CZKtFvhRVf0rr6Wxp+ELZPuzm1F+Z1x9ak+1d/W+JFSbDlFbGPA7llDK7C//BFxzLpSdKe7cisSrnkDZDVlfDQC7zMqL6Q7c/fP7dH6MGVU8Z2liciHFvYMvadUeyBGB6jo5+wCdO9cO+0X0ZSqNHXmvwI8BqRKt+4MBKG91su/ltmUH/fLPh2D9xjF8Pd4JBzPXF+OMbE4oKk7txy41CJScD13Y1S9mc1DG0T0biqzYFyMa94bJDS6cf/v/hIaJsblSywOEGVtgMi/7Giv3xtFZ6ZrcJ2q3lWGWSHQA6GkhCf9n8qV5ViQKKcwjC7fyV9nk3HEvx8dj0XduQ8a5W9DihuEH6uRHY7oXkXrQeZTjPfbN/g1EcoBjjgvqhq/x5n5m4bmlhqqLtsBZsqxqzGW/ll5o68l+VzYPbDFPYPnjnhsAdwAUQ/0PkcTHX2t9XvGPmzqzJ8nor+0akg4oYJ/dTPqtx47lD+Oz25aTcJcATweRtc7TCil0OmoMR+1CgjfiRJeLhTkywhBM4tDRlm5q63RN59HXObg+9EWMVOmhmoB21bKyXTn4OuIjDtmGKOLwugZj/LGgPXqANbwrKMaOtem+YHcUhU+FSA2osKKwGQqjzkBegYirWJFfLckpdjllURZDlg459jvAbag1OG+WamXw+rzHPkKQa1SZF1/S+r5QGXC7ACJUF//aQr7/U1iXjRdv6YsBzjGu8T2XIVnWCleGF1NPYNLQINWlTvrZzZsCmWcBLaAiA7Qd4wzv3oCk9MCcMTqAOClsKrEk9sD7RFZv22lnAylD3sLUIi0+6aqtqyMktMpy3OAim3xhai+FkZN00M6FVgVIDY4Mtzw7dCmqbHG60V4K6wuAEFsO2A1UXSdTskOWL5eE6C/axFRPeH57iydwVDuWqDRLiT/tPcOGQ5tYEALEEOkcLjaHVDyeyy54O5zcxmgzl9CdvXffs7RMLpEZEWQjCqhv/5RnfZB2InYBYnYwiET7wBFArbkNHyGsXB1gIRXO3U4dAi5WH28g7Cjnm12NvEOwLVOPwEN9YVlNg9cgH0qC7A1UmqiqijMssqYcPb9StyxTo9LDhaW7oDALyzcMh8THMzSCLMpgHkPDp4DTAlQGq0F4NgyuUs+6lTOLMg+yyDsLENsA/kpmf8Np6uIe8IJ6n5wzEi0WZBaWpSyL4quM+wotSBB82wJN8swqouDZERNX1ijACR4FXx8R/vMwSg6FfU9a6CCPehnoQwHqL2JGw01ZRSRC4JkXJWdIY0a1Rn3KhgU8Q0QCpPiAKwRTlX128Yby/lBAicdL1qsPWh80nAbMacjsNT/mU5KF2RX7GhwLk4xmmpZSxSZ5U6LlocZ1ALEidT/06suqF9+EKq8HknfaZTsABHHHuO3L1wAmNOwv47gKdzIf62RsK3pFEFxoEir4OYD+SWAbxbFiJMISG33p2QHGLV3QcZIYNJUMtkQJrGq5tIejRZrCV6ERWoBxlVL5oPu2ttSP/FdkGDv4wUNiO2AjJwMtSGSIzctrF3F7sI+tXU0YhzIiP8ZB5Fnouh6hy2lFhQNGvmdwJc2OhUM7N9PeuqbazqW9OH8x0Cb7KaFnwWluwYvRPA/22bUkjERTBmxoKCRX8NuUgTOcBxxLg6pC4wGZy2LhF65qjp34f+eDtfPSj0dVtd4lDEIq/3FiaRDquoPEjBKqHzSdFduhd/G+Rn6Cl6oMaW55+giEb3JX0IfDrtB5EcZg7BrbQGKZsLoEdHAm0oEli/qGrJu/izcdDQN4fKPHMcJzmLoVbfgud/EP6ZUwNSUfcCkZAdMSRhrppvAhWESYD3cME3YMZh/aO7IjRuPWdQ50Oy47tMEHjUtoqj1AAlA+lDu7wXe5/dclAfjOEFfVs5lujP3ln3Ro+8PzMlXlUx3fo+GWBGDZFXNl1xHnuprSR3I9AwvwIz8haqsI3BHbUy1yCf6W5MPj/3/5g6t9RL5DuAzluIDjrC4ryUVeUU9lvISs4SfAtf6PVblCsDuABHVzlw3wpeDK9S0iDxkFNJdOVWvIKV+Q4J+I92dW2YMjyYwezxxzheVy4zkbyPoY1Bp72tNlv3yocxQhIA150ccCXV4QRIjDxA9QBb05oMCZA7KzY7wQyPOLwSeR3RjYEtUvpVtS34zkqVWI8rAgP2okbJscc9gYL+8c82MARD7+YIICGw2jn6MgIBhCYp/5HrJoMy9SJTlgEQh+ZLtOCfgFgqyMoyubGtyi6p8oxx7ABS+s+BA8tZdaxv/A/S+cvWdpvjZY/mh63a0y4nYdFKmA3a0ywlEv2cVEtpQDdVRNx1sWIPSW6o9AptnuslVp05FznBTd1M8XVMOCrJxRiL5kf13nmf72Eqi7JMnTd25VaI8ahVy5EPZtclnQylUlczm3OdV5YuEvFxJYB/CZ3e2pN6ZIt6rbvpQfh1wD9ETqF4yjt5RbE2VoWwHzLtX62qm5vdiOxmv+p/Zg6nLWS8BCeO/JtMzvEALI+0Uc4bGO/w3gvAjQR9xRlLfCuoaRu+o+xywwjp1FvaifN9RfaivrfHFsPaWSixnrzJdufsUbguoanW2NbmlFP3NHcfmFWq8ZlFtFJxjeOyvm9OwvaQwQK+6TUdyF+CxRBhN3hIZRnhLxN0+0bfrxuOAnuEF6hV2YG/iBwuec1Elbp16NxPLlmTxq9FHAsRmJVzz8Og2ZJVRYnsZjia+QPF2Qxt/mJ6dP+tuSJlMYnNAX1v9HuDeEKJtTV25e+Kq991OrAegmzu01qvJv+J3t8IYvjrDTd5Swob7bxSxn0Bf+MDQJY5jXgRqA4WVZ0cc95PlbGq/26nInXGZ7sG/UpUHQ4oPKNzdf27ya2HPk/0mUbFL+zJd+Q1qv3VqLDtQ3eB6qS1xx1ugeH9pQ0P9SlSu39mW+tO49ZdK5S5uVZV0V74D4ZaIJY+oyndx6B3O539cTvwls3ngAjXOByjejnsdozeuiGMWR765pUJU9ubc4m7Xei3GYUqhAPy3wCtGNSuO9DvoPtQ9jhYGRkSN6yRS4pkUrtuIZ5pUWIKyBGEpvqcX9eZsa+PXS7QpVibk7uh0V/4m0G5Kv64+ZnRLtrVx9WRbAZW+uniUbGtyi7p6GegrE1FfMPIHk23BKSb2BxyKoeFWYD3B94pWFA9v0e7W6ZHOHVSCiY3LrBQv25raJO5IhuJ9QJPzM1LKGwnjlH1TTBxM6o/4zO3R+ikmv1qUTwCXV9oeEV5VI/fPSDQ8eraswM+Kn7GC0R9u08SfIOYaRa4ingG7IPCCQZ4wFJ44G7qcsZw1DjgDVVn4wECTm3CWGmWpwFJB5ik0KkyX4nw+STFtcGD03xHgsMD/qOrrgrv1eKJ+25trJChCW6VKlSpVqlSpUqVKlSpVqlSZMP4P8Vv2OR8EswIAAAAASUVORK5CYII=;" parent="1" vertex="1">
          <mxGeometry x="480" y="322.5" width="30" height="30" as="geometry" />
        </mxCell>
        <mxCell id="RAJVKOpdcDavsLiYcgov-94" style="edgeStyle=orthogonalEdgeStyle;rounded=0;orthogonalLoop=1;jettySize=auto;html=1;exitX=1;exitY=0.25;exitDx=0;exitDy=0;entryX=0;entryY=0.25;entryDx=0;entryDy=0;" parent="1" source="RAJVKOpdcDavsLiYcgov-83" target="RAJVKOpdcDavsLiYcgov-34" edge="1">
          <mxGeometry relative="1" as="geometry" />
        </mxCell>
        <mxCell id="RAJVKOpdcDavsLiYcgov-96" value="Visualizar perfil" style="edgeLabel;html=1;align=center;verticalAlign=middle;resizable=0;points=[];" parent="RAJVKOpdcDavsLiYcgov-94" vertex="1" connectable="0">
          <mxGeometry x="-0.3256" y="-1" relative="1" as="geometry">
            <mxPoint x="-43" y="-17.1" as="offset" />
          </mxGeometry>
        </mxCell>
        <mxCell id="RAJVKOpdcDavsLiYcgov-105" style="edgeStyle=orthogonalEdgeStyle;rounded=0;orthogonalLoop=1;jettySize=auto;html=1;exitX=1;exitY=0.75;exitDx=0;exitDy=0;entryX=0.5;entryY=0;entryDx=0;entryDy=0;" parent="1" source="RAJVKOpdcDavsLiYcgov-83" target="RAJVKOpdcDavsLiYcgov-15" edge="1">
          <mxGeometry relative="1" as="geometry" />
        </mxCell>
        <mxCell id="RAJVKOpdcDavsLiYcgov-107" value="Visualizar calendário" style="edgeLabel;html=1;align=center;verticalAlign=middle;resizable=0;points=[];" parent="RAJVKOpdcDavsLiYcgov-105" vertex="1" connectable="0">
          <mxGeometry x="0.513" y="2" relative="1" as="geometry">
            <mxPoint x="-2" y="-55.4" as="offset" />
          </mxGeometry>
        </mxCell>
        <mxCell id="RAJVKOpdcDavsLiYcgov-110" style="edgeStyle=orthogonalEdgeStyle;rounded=0;orthogonalLoop=1;jettySize=auto;html=1;exitX=0;exitY=1;exitDx=0;exitDy=0;" parent="1" source="RAJVKOpdcDavsLiYcgov-83" target="RAJVKOpdcDavsLiYcgov-49" edge="1">
          <mxGeometry relative="1" as="geometry" />
        </mxCell>
        <mxCell id="RAJVKOpdcDavsLiYcgov-112" value="Dica diária" style="edgeLabel;html=1;align=center;verticalAlign=middle;resizable=0;points=[];" parent="RAJVKOpdcDavsLiYcgov-110" vertex="1" connectable="0">
          <mxGeometry x="0.3242" y="1" relative="1" as="geometry">
            <mxPoint x="10" y="-20.9" as="offset" />
          </mxGeometry>
        </mxCell>
        <mxCell id="RAJVKOpdcDavsLiYcgov-114" style="edgeStyle=orthogonalEdgeStyle;rounded=0;orthogonalLoop=1;jettySize=auto;html=1;exitX=0;exitY=0.75;exitDx=0;exitDy=0;entryX=0.5;entryY=0;entryDx=0;entryDy=0;" parent="1" source="RAJVKOpdcDavsLiYcgov-83" target="RAJVKOpdcDavsLiYcgov-48" edge="1">
          <mxGeometry relative="1" as="geometry" />
        </mxCell>
        <mxCell id="RAJVKOpdcDavsLiYcgov-117" value="Previsão semanal" style="edgeLabel;html=1;align=center;verticalAlign=middle;resizable=0;points=[];" parent="RAJVKOpdcDavsLiYcgov-114" vertex="1" connectable="0">
          <mxGeometry x="-0.6131" y="4" relative="1" as="geometry">
            <mxPoint x="-14.5" y="11.62" as="offset" />
          </mxGeometry>
        </mxCell>
        <mxCell id="RAJVKOpdcDavsLiYcgov-83" value="Tela principal" style="shape=image;verticalLabelPosition=bottom;labelBackgroundColor=#ffffff;verticalAlign=top;aspect=fixed;imageAspect=0;image=data:image/png,iVBORw0KGgoAAAANSUhEUgAAAGAAAABgCAYAAADimHc4AAAABmJLR0QA/wD/AP+gvaeTAAACyElEQVR4nO3dsWtTURzF8XNfSgdtogUxTupsxUWl4CAIJlJC6ZTu1jq4OEjBP0KKdHCRVlczSdHQmgputQ4JCEHX4lKwltBEHcxLrkMpiE0Kpbm/k+r5jEnpeX1fXpIueYCIiIiIiPxvnPXg1VvjIxHcNOAyAM4DOG59DH/5AWDdOZS8w/yHpcVPluNmAUby+cFkvTnr4e8BSFjtHlALHk/irfRMufy0aTFoEmAknx8cqv8qArhpsXd4biX+djpnESEKPQAAyXpzFkfm5AOAzwyc+vrIYin4FbDzmh99RP++7HQTu1Z0ae3ty88hR4JfARESd3H0Tj4ADLQTfjr4SOgBwGc6PXrx8jXkJm8jmRoOfwj7aNRrKBaeoVp5v+e5CD4bet/iPeBspwf74eQDQDI1jNzkVMfnPHAu9L5FgKFOD/bDyd+VPNH1WJKht00+BUl3CkCmAGQKQKYAZApApgBkCkCmAGQKQKYAZApApgBkCkCmAGQKQKYAZApApgBkCkCmAGQKQKYAZApApgBkCkCmAGQKQKYAZApApgBkCkCmAGQKQKYAZApApgBkCkCmAGQKQKYAZApApgBkCkCmAGQKQKYAZApApgBkCkCmAGQKQKYAZApApgBkCkCmAGS0AI16jTW9R2Obdyy0AMXCc+ofvquxXcPrwgJt3+Db0zurVlZRrayy5vuG3gPIFIBMAcgs3gMa6MH38N8YGz/Qz79benXYSQCo9+KX7MfiCvhisBGEMzj24AGcQyn0RijeYTn0RvAA3mEeQCv0TgBx1G4H/wfB5E56o9mJOTjct9jqFefweG158UHoHZNPQfFWegZwKxZbPeFQam6mH1pMmdxgbWOj3D5z8vqL6NjPFIAr6N+Pv7FzmIs301P/1M08/zQ6NnHBt92dCD7rd25n2/E2V4a+O2Ddw79xrcRC6FsXioiIiIiI/AZRsIuCVhjmigAAAABJRU5ErkJggg==;" parent="1" vertex="1">
          <mxGeometry x="633.5" y="380" width="104.5" height="104.5" as="geometry" />
        </mxCell>
        <mxCell id="RAJVKOpdcDavsLiYcgov-99" style="edgeStyle=orthogonalEdgeStyle;rounded=0;orthogonalLoop=1;jettySize=auto;html=1;exitX=0.5;exitY=1;exitDx=0;exitDy=0;" parent="1" source="RAJVKOpdcDavsLiYcgov-42" target="RAJVKOpdcDavsLiYcgov-42" edge="1">
          <mxGeometry relative="1" as="geometry" />
        </mxCell>
      </root>
    </mxGraphModel>
  </diagram>
</mxfile>
